<?xml version="1.0" encoding="UTF-8"?>
<svg version="1.1" viewBox="0 0 1600 1600" width="1280" height="1280" xmlns="http://www.w3.org/2000/svg">
<path transform="translate(0)" d="m0 0h1600v1600h-1600v-1600z" fill="#000002"/>
<path transform="translate(561 262)" d="m0 0 8.61-0.06c1.91-0.01 3.82-0.04 5.72-0.06 1.11-0.01 2.22-0.02 3.36-0.02 1.42-0.02 1.42-0.02 2.88-0.03 2.25 0.22 2.25 0.22 4.25 2.22-3.44 5.53-6.93 11-10.4 16.5-1.32 2.13-2.48 4.25-3.55 6.51h-2c-0.12 0.58-0.24 1.15-0.36 1.74-1.74 6.15-5.77 11.6-9.52 16.7-1.98 2.72-3.62 5.6-5.2 8.56-2.12 3.94-4.29 7.58-7.05 11.1-1.97 2.52-3.42 4.84-4.62 7.81-1.25 3.06-1.25 3.06-3.25 4.06-0.85 1.37-1.63 2.77-2.38 4.19-1.47 2.74-2.94 5.29-4.68 7.88-2.32 3.5-4.14 7.15-5.94 10.9h-2c-0.27 0.91-0.54 1.82-0.81 2.75-1.11 3.04-2.19 4.78-4.19 7.25-1.02 1.66-2.01 3.33-3 5-5.52 9.28-5.52 9.28-8.06 13.1-2.55 3.85-4.72 7.89-6.94 11.9-1.69 3.07-1.69 3.07-3 5h-2c-0.08 0.73-0.17 1.45-0.25 2.19-0.92 3.44-2.5 5.06-4.75 7.81-1.34 2.31-2.61 4.65-3.85 7.02-1.15 1.98-1.15 1.98-3.15 3.98-0.64 2.07-0.64 2.07-1 4h-3c-0.12 0.75-0.25 1.49-0.38 2.25-0.58 2.56-1.36 4.48-2.62 6.75h-2c-0.27 0.89-0.54 1.78-0.81 2.69-1.12 3.11-2.29 5.63-4.19 8.31h-2c-0.08 0.73-0.17 1.45-0.25 2.19-0.92 3.45-2.5 5.02-4.75 7.81-0.96 1.7-1.9 3.41-2.81 5.13-2.57 4.82-5.37 9.4-8.34 14-2.01 3.15-3.97 6.33-5.91 9.52-2.31 3.76-4.65 7.48-7.13 11.1-1.94 2.87-3.67 5.77-5.31 8.82-1.65 3.05-3.43 5.76-5.56 8.5-2.93 3.76-4.94 7.62-6.94 11.9h-2c-0.1 0.75-0.21 1.49-0.31 2.25-0.75 3-1.76 4.38-3.69 6.75-1.02 1.66-2.01 3.33-3 5-5.52 9.28-5.52 9.28-8.06 13.1-2.55 3.85-4.74 7.88-6.94 11.9h-2c-0.12 0.59-0.24 1.18-0.37 1.79-0.65 2.26-1.46 3.76-2.76 5.71-2.21 3.43-4.28 6.91-6.31 10.4-2.6 4.49-5.35 8.8-8.27 13.1-1.68 2.58-3.01 5.2-4.29 7.98h-2c-0.08 0.54-0.17 1.08-0.25 1.63-0.8 2.53-2.01 4.39-3.52 6.55-2.59 3.83-4.87 7.86-7.23 11.8-1.5 2.51-3 5.01-4.51 7.5-0.99 1.67-1.98 3.33-2.96 5-2.58 4.39-5.27 8.61-8.22 12.8-2.48 3.48-4.43 6.92-6.31 10.8-0.94 1.45-1.9 2.89-2.88 4.32-2.02 2.97-3.86 5.95-5.56 9.12-2.34 4.33-5.12 8.26-7.98 12.3-1.84 2.68-3.26 5.34-4.58 8.3h-2c-0.08 0.73-0.17 1.45-0.25 2.19-0.91 3.42-2.52 5.08-4.75 7.81-0.66 1.24-1.28 2.49-1.88 3.75-2.27 4.73-5.15 8.94-8.12 13.2-3.56 5.24-6.89 10.5-10 16-0.87 1.41-1.74 2.82-2.62 4.22-0.45 0.71-0.9 1.42-1.36 2.16-0.33 0.53-0.67 1.07-1.02 1.62h1.77c34.6-0.04 69.3-0.08 104-0.1 4.16 0 8.31 0 12.5-0.01h2.51c13.4-0.01 26.8-0.02 40.2-0.04 13.8-0.02 27.5-0.03 41.3-0.03 8.5-0.01 17-0.01 25.5-0.03 5.82-0.01 11.6-0.01 17.5-0.01 3.36 0 6.72 0 10.1-0.01 3.64-0.01 7.27-0.01 10.9-0.01 1.07 0 2.14-0.01 3.24-0.01 1.46 0 1.46 0 2.94 0.01h2.55c2.15 0.24 2.15 0.24 5.15 2.24 0.37 2.11 0.37 2.11 0.36 4.76 0 1.01 0.01 2.01 0.01 3.05-0.01 1.1-0.02 2.21-0.03 3.35v3.51c0 3.86-0.02 7.71-0.05 11.6 0 2.67-0.01 5.33-0.01 8-0.01 6.3-0.03 12.6-0.07 18.9-0.03 7.18-0.05 14.4-0.06 21.5-0.03 14.8-0.08 29.5-0.15 44.3-4.28 2.14-9.91 1.42-14.6 1.56-0.67 0.02-1.35 0.04-2.04 0.06-20.4 0.62-40.8 0.52-61.1 0.5h-17.9c-10.3 0-20.6 0-30.8-0.01-10.8-0.01-21.5-0.01-32.3-0.01h-2.04-10.3c-24.1 0-48.2-0.01-72.4-0.02-23.4-0.01-46.8-0.02-70.2-0.02h-2.19-21.8c-14.8-0.01-29.6-0.01-44.4-0.01h-2.06c-45.3-0.01-90.6-0.03-136-0.05-1.06-3.24-1.13-3.73 0.48-6.98 0.7-1.1 1.41-2.2 2.14-3.33 0.37-0.58 0.74-1.16 1.12-1.75 1.94-3.02 3.96-5.97 6.07-8.87 2.09-2.93 3.61-5.84 5.19-9.07 0.51-0.68 1.03-1.36 1.56-2.06 1.58-1.95 1.58-1.95 2.5-4.62 0.94-2.32 0.94-2.32 2.94-3.32 0.98-1.64 0.98-1.64 1.87-3.62 1.88-3.91 3.95-7.63 6.13-11.4h2c0.26-0.88 0.52-1.76 0.79-2.66 1.19-3.28 2.59-5.76 4.52-8.65 2.78-4.23 5.3-8.51 7.65-13 1.04-1.68 1.04-1.68 3.04-2.68 1.54-2.96 2.96-5.95 4.34-8.98 0.82-1.71 1.73-3.37 2.66-5.02 0.99-0.33 1.98-0.66 3-1 0.71-1.98 1.37-3.98 2-6 1.15-2.05 2.36-4.07 3.62-6.06 0.72-1.14 1.44-2.28 2.15-3.42 0.55-0.86 0.55-0.86 1.11-1.75 1.81-2.87 3.59-5.75 5.37-8.64 0.66-1.07 1.31-2.13 1.99-3.23 1.43-2.36 2.8-4.73 4.13-7.15 1.63-2.75 1.63-2.75 3.63-3.75 0.87-1.55 1.67-3.14 2.44-4.75 3.69-7.57 3.69-7.57 5.56-10.2h2c0.37-1.57 0.37-1.57 0.75-3.18 1.03-3.65 2.76-5.94 5.25-8.82 0.71-1.31 1.39-2.63 2-4h2c0.27-0.88 0.54-1.77 0.81-2.68 1.78-4.97 4.71-9.15 7.56-13.6 3.48-5.44 6.74-11 9.63-16.8h2c0.41-1.09 0.41-1.09 0.83-2.2 1.12-2.68 2.4-5.01 3.92-7.48 0.53-0.87 1.05-1.73 1.6-2.62 0.54-0.89 1.09-1.78 1.65-2.7 1.54-2.58 3.07-5.18 4.6-7.77 1.4-2.23 1.4-2.23 2.89-4.17 1.76-2.39 3.07-4.87 4.45-7.49 2.08-3.88 4.28-7.16 7.06-10.6 1.22-2.09 2.37-4.22 3.52-6.35 4.07-7.28 8.61-14.3 13.1-21.3 4.05-6.33 7.88-12.8 11.7-19.2 0.82-1.38 1.63-2.76 2.45-4.14 0.39-0.67 0.78-1.33 1.18-2.02 2.84-4.8 2.84-4.8 5.07-5.92 1.04-1.98 2.03-3.98 3-6 1.64-3.01 3.32-6 5-9h2c0.15-1.09 0.15-1.09 0.31-2.2 0.76-3.06 1.88-4.92 3.69-7.48 2.16-3.06 2.16-3.06 4-6.32h2c0.14-0.76 0.29-1.52 0.44-2.31 0.84-4.01 1.73-5.86 4.56-8.69 4.91-6.94 9.36-14.3 13-22h2c0.27-0.72 0.55-1.45 0.83-2.2 1.12-2.68 2.4-5.01 3.92-7.48 0.53-0.88 1.07-1.75 1.62-2.65 0.53-0.88 1.07-1.76 1.63-2.67 0.96-1.6 1.92-3.2 2.87-4.81 3.02-5.03 6.1-10 9.18-15 1.74-2.83 3.44-5.69 5.14-8.55 1.68-2.83 3.42-5.54 5.37-8.19 2.38-3.23 4.27-6.65 6.19-10.2 2.68-4.86 5.65-9.49 8.94-14 1.94-2.66 3.11-5.24 4.31-8.32 0.47-0.47 0.94-0.94 1.43-1.42 2.58-2.59 4.09-5.88 5.82-9.08 3.29-5.96 6.71-11.8 10.4-17.5 1.33-1.99 1.33-1.99 2.31-4.04-13.2-1.07-26.4-1.12-39.7-1.08-2.35 0.01-4.7 0.01-7.06 0.01-5.03 0.01-10.1 0.02-15.1 0.03-7.29 0.02-14.6 0.03-21.8 0.03-11.8 0.02-23.6 0.03-35.5 0.05h-2.14l-30.1 0.06h-2.15-2.14c-11.8 0.03-23.6 0.04-35.4 0.05-7.92 0.01-15.8 0.02-23.8 0.05-4.9 0.01-9.81 0.01-14.7 0.01-2.28 0-4.56 0.01-6.85 0.02-3.1 0.01-6.2 0.01-9.3 0.01-1.37 0.01-1.37 0.01-2.77 0.02-6.21-0.03-6.21-0.03-8.44-2.26-0.25-2.08-0.25-2.08-0.26-4.7 0-0.99-0.01-1.99-0.01-3.01 0-1.09 0.01-2.19 0.01-3.31 0-1.15-0.01-2.3-0.01-3.48-0.01-3.81 0-7.62 0-11.4v-7.92c-0.01-5.53 0-11.1 0.01-16.6 0.01-6.41 0.01-12.8-0.01-19.2-0.01-6.16 0-12.3 0-18.5v-7.86c-0.01-3.66 0-7.32 0.01-11 0-1.09-0.01-2.18-0.01-3.31 0.01-1.49 0.01-1.49 0.01-3.01 0.01-0.86 0.01-1.73 0.01-2.62 0.25-2.09 0.25-2.09 2.25-4.09 2.52-0.2 4.93-0.27 7.45-0.26 0.79 0 1.57 0 2.37-0.01 2.65-0.01 5.3-0.01 7.95 0 1.9-0.01 3.81-0.01 5.72-0.02 5.26-0.02 10.5-0.02 15.8-0.02 5.67-0.01 11.3-0.02 17-0.03 9.83-0.03 19.7-0.04 29.5-0.05 14.2-0.02 28.5-0.04 42.8-0.07 23.2-0.05 46.3-0.08 69.5-0.11 22.4-0.03 44.9-0.07 67.3-0.11h2.09c6.23-0.01 12.5-0.02 18.7-0.04 43.8-0.07 87.5-0.15 131-0.21 3.31-0.01 6.62-0.01 9.94-0.01 1.05-0.01 2.1-0.01 3.19-0.01 2.08 0 4.15-0.01 6.23-0.01 4.87-0.01 9.74-0.01 14.6-0.01 7.62-0.01 15.2-0.01 22.8-0.08z" fill="#F8FBFC"/>
<path transform="translate(1253 1013)" d="m0 0c7.15 1.84 14.2 1.95 21.6 2.07 1.1 0.02 2.2 0.04 3.33 0.06 3.5 0.07 6.99 0.13 10.5 0.19 2.37 0.04 4.75 0.08 7.13 0.13 5.81 0.1 11.6 0.21 17.4 0.3 1.75 3.17 3.5 6.34 5.25 9.5 0.49 0.89 0.98 1.78 1.49 2.69 2.87 5.22 5.63 10.5 8.26 15.8 0.97 1.82 1.95 3.64 2.94 5.44 0.51 0.94 1.03 1.88 1.56 2.85 0.74 1.34 0.74 1.34 1.5 2.71 0.4 0.73 0.8 1.46 1.21 2.21 2.43 4.4 4.91 8.76 7.41 13.1 3.47 6.06 6.91 12.1 10.3 18.2 0.48 0.85 0.97 1.71 1.47 2.59 0.67 1.23 0.67 1.23 1.37 2.47 0.4 0.73 0.81 1.45 1.22 2.19 1.09 2.38 1.58 4.61 2 7.18l4 1c0.39-1.51 0.39-1.51 0.78-3.06 1.11-3.88 2.79-7.3 4.66-10.9 2.54-4.93 4.77-9.81 6.56-15.1h2c0.21-1.23 0.41-2.47 0.62-3.75 1.14-5.14 3.35-9.4 5.79-14 2.2-4.44 3.85-9.03 5.51-13.7 1.08-2.52 1.08-2.52 3.08-3.52 1.6-3.34 2.9-6.72 4.16-10.2 0.63-1.72 0.63-1.72 1.28-3.47 0.39-1.1 0.78-2.2 1.18-3.33 1.49-3.22 2.61-4.79 5.38-6.99 3.02-0.48 3.02-0.48 6.6-0.45h1.99c2.15 0 4.3 0.03 6.46 0.06 1.49 0.01 2.99 0.02 4.49 0.02 3.93 0.02 7.86 0.05 11.8 0.1 4.02 0.04 8.03 0.06 12 0.08 7.87 0.04 15.8 0.11 23.6 0.19 0.58 1.88 0.58 1.88 1 4-1.31 1.94-1.31 1.94-3 4-0.68 1.66-1.35 3.33-2 5-0.71 1.18-0.71 1.18-1.44 2.38-1.65 2.64-1.65 2.64-2.88 5.77-1.78 4.19-3.9 8.16-6.06 12.2-2.48 4.63-4.94 9.27-7.25 14-1.83 3.73-3.88 7.29-6 10.9-2.48 4.2-4.53 8.3-6.37 12.8-0.77 1.27-0.77 1.27-1.56 2.57-1.58 2.47-1.58 2.47-2.5 5.62-0.94 2.81-0.94 2.81-2.94 4.81-1.04 1.98-2.03 3.99-3 6-2.71 5.52-5.54 11-8.44 16.4-2.52 4.74-5.01 9.48-7.37 14.3-1.8 3.65-3.93 6.93-6.19 10.3-1.03 2.32-2.03 4.66-3 7-1.29 2.69-2.65 5.35-4 8-0.71 1.46-0.71 1.46-1.44 2.94-1.18 2.33-2.41 4.6-3.69 6.88-2.94 5.26-5.75 10.6-8.56 15.9-2.37 4.5-4.79 8.97-7.34 13.4-1.03 1.9-1.03 1.9-1.86 4.15-1.4 3.43-3.15 6.65-4.92 9.9-2.34 4.33-4.64 8.65-6.82 13.1-2.19 4.45-4.56 8.79-6.95 13.1-1.28 2.37-2.49 4.76-3.67 7.19-1.75 3.43-1.75 3.43-3.75 5.43-0.7 1.66-1.36 3.33-2 5-2.53 5.38-5.32 10.6-8.17 15.8-0.53 0.97-1.07 1.94-1.61 2.95-0.41 0.73-0.81 1.46-1.22 2.21-8.26 0.16-16.5 0.31-24.8 0.45-3.84 0.06-7.67 0.13-11.5 0.2-3.7 0.07-7.4 0.14-11.1 0.2-1.41 0.02-2.82 0.05-4.23 0.07-1.98 0.04-3.96 0.07-5.94 0.11-1.69 0.03-1.69 0.03-3.41 0.06-2.81-0.08-5.3-0.44-8.03-1.09l-1-3c1.27-2.04 2.61-4.03 4-6 1.12-2.1 2.2-4.23 3.25-6.37 0.61-1.23 1.21-2.46 1.82-3.68 0.31-0.64 0.62-1.28 0.95-1.94 1.71-3.49 3.44-6.97 5.17-10.4 0.32-0.65 0.64-1.3 0.97-1.97 1.53-3.08 3.11-6.11 4.84-9.08 2.12-3.68 4-7.46 5.87-11.3 2.71-5.45 5.5-10.8 8.45-16.2 2.65-4.86 5.21-9.76 7.78-14.7 2.16-4.11 4.32-8.22 6.51-12.3 0.41-0.78 0.82-1.55 1.25-2.35 0.78-1.47 1.57-2.94 2.36-4.41 2.88-5.41 4.3-9.16 3.78-15.4-1.08-2.71-2.53-5.13-4.06-7.62-0.83-1.41-1.67-2.82-2.49-4.24-0.42-0.69-0.83-1.39-1.26-2.11-1.71-2.92-3.29-5.9-4.88-8.9-2.93-5.49-6.06-10.8-9.31-16.1-3.2-5.25-6.29-10.5-9-16-1.45-2.7-2.92-5.39-4.4-8.07-1.03-1.89-2.06-3.77-3.08-5.66-3.69-6.84-7.58-13.6-11.5-20.3-2.95-5.06-5.75-10.2-8.54-15.4-1.43-2.58-2.92-5.12-4.46-7.65-3.63 3.89-5.29 7.88-7.07 12.8-0.93 2.2-0.93 2.2-2.93 4.2-0.72 2.32-1.39 4.65-2 7-4.04-0.58-6.76-1.92-10.2-4-10.6-5.45-24.4-5.34-35.8-2-6.68 2.68-12 5.24-15 12h-2c-0.16 0.86-0.16 0.86-0.33 1.73-0.16 0.77-0.32 1.54-0.48 2.34-0.23 1.13-0.23 1.13-0.46 2.28-0.73 2.65-0.73 2.65-2.25 5.72-1.93 4.48-1.92 8.71-1.91 13.5-0.01 0.94-0.02 1.88-0.03 2.84-0.03 3.08-0.04 6.16-0.05 9.24l-0.06 6.42c-0.04 5.63-0.07 11.2-0.1 16.9-0.03 5.74-0.08 11.5-0.12 17.2-0.09 11.3-0.15 22.5-0.21 33.8-33.2 1.18-33.2 1.18-46.2 1.19-1.23 0.01-2.46 0.03-3.73 0.04h-3.54c-1.01 0.01-2.02 0.01-3.07 0.02-2.41-0.25-2.41-0.25-4.41-2.25-0.25-2.92-0.25-2.92-0.25-6.75-0.01-0.71-0.01-1.41-0.01-2.13-0.01-2.37-0.01-4.73 0-7.1 0-1.69-0.01-3.38-0.01-5.08-0.01-4.6-0.01-9.2 0-13.8 0.01-4.81 0-9.62 0-14.4-0.01-8.08 0-16.2 0.01-24.2 0.01-9.35 0.01-18.7 0-28-0.01-8.02-0.02-16-0.01-24v-14.4c-0.01-4.51 0-9.01 0.01-13.5 0-1.65 0-3.31-0.01-4.97 0-2.25 0.01-4.5 0.02-6.76v-3.83c0.25-2.93 0.25-2.93 2.25-4.93 2.44-0.24 2.44-0.24 5.55-0.22h3.52c1.26 0.01 2.52 0.02 3.81 0.03 1.29 0 2.57 0 3.9 0.01 3.41 0 6.83 0.02 10.2 0.05 3.49 0.02 6.97 0.03 10.5 0.04 6.84 0.02 13.7 0.05 20.5 0.09 1.17 2.35 1.2 3.95 1.32 6.57 0.04 0.9 0.08 1.8 0.12 2.72 0.04 0.94 0.08 1.87 0.12 2.84 0.05 0.94 0.09 1.89 0.13 2.86 0.11 2.34 0.21 4.68 0.31 7.01l3.36-2.85c0.62-0.53 1.24-1.06 1.88-1.6 1.42-1.25 2.76-2.57 4.07-3.92 1.69-1.63 1.69-1.63 3.69-1.63 0.24-0.6 0.48-1.21 0.72-1.84 1.57-2.65 2.98-3.36 5.72-4.72 3.24-1.6 3.24-1.6 5.96-3.93 10.7-10 35-7.73 47.7-4.26z" fill="#F8FBFC"/>
<path transform="translate(544 898)" d="m0 0h3.4c1.2 0.01 2.41 0.01 3.65 0.02h3.75c3.28 0 6.56 0.01 9.84 0.02 3.35 0.02 6.7 0.02 10 0.02 6.57 0.02 13.1 0.03 19.7 0.05 1.27 2.55 1.13 4.36 1.15 7.22 0.01 1.1 0.02 2.21 0.03 3.35 0.01 1.82 0.01 1.82 0.02 3.69 0.01 1.27 0.02 2.55 0.03 3.87 0.03 3.51 0.05 7.02 0.07 10.5 0.02 3.67 0.05 7.33 0.07 11 0.05 6.94 0.1 13.9 0.14 20.8 0.05 7.91 0.11 15.8 0.16 23.7 0.12 16.3 0.22 32.5 0.33 48.8 1.41-1.03 1.41-1.03 2.85-2.08 1.25-0.91 2.51-1.82 3.77-2.73 0.62-0.45 1.24-0.9 1.87-1.37 4.96-3.57 9.96-6.46 15.8-8.32 3.84-1.22 7.64-2.52 11.4-3.85 6.76-1.96 13.5-1.83 20.5-1.83 1.08-0.02 2.16-0.03 3.27-0.04 11.8-0.02 23.4 1.84 33.5 8.22 1.06 0.44 2.12 0.87 3.21 1.32 11.2 4.73 19.8 13 26.8 22.7 0.87 1.15 1.75 2.29 2.62 3.43 5.21 6.87 8.96 13.2 11.4 21.6 0.53 1.63 1.07 3.26 1.62 4.88 0.36 1.09 0.36 1.09 0.72 2.2 0.53 1.54 1.14 3.05 1.78 4.55 2.76 7.48 2.06 15.9 2.06 23.8 0.02 1.27 0.03 2.55 0.04 3.87 0.01 6.9-0.39 13.1-2.22 19.8-0.24 1.14-0.47 2.27-0.72 3.44-1.36 6.43-3.04 11.9-6.28 17.6-0.48 0.99-0.95 1.98-1.44 3-2.95 5.67-6.26 11.2-10.6 16h-2c-0.35 1.09-0.35 1.09-0.69 2.19-2.62 5.61-7.25 8.54-12.3 11.8-1.26 1-2.51 2-3.75 3-3.74 2.84-7.49 4.52-11.9 6.13-2.61 0.92-2.61 0.92-5.94 2.56-3.59 1.37-6.61 1.79-10.4 2-2.33 0.22-2.33 0.22-5.01 2.31-2.47 0.26-2.47 0.26-5.38 0.27-1.07 0-2.14 0-3.24 0.01-1.67-0.01-1.67-0.01-3.38-0.03-1.09 0.01-2.18 0.02-3.3 0.03-9.54-0.03-18.5-0.92-27.3-4.84-0.99-0.43-1.98-0.87-3-1.32-1.49-0.68-2.97-1.38-4.43-2.12v-2c-0.83-0.04-1.65-0.08-2.5-0.12-6.88-1.72-11.7-6.9-16.5-11.9l-3-2v18c-5.53 0.15-11.1 0.29-16.6 0.43-1.87 0.05-3.74 0.1-5.62 0.15-6.26 0.16-12.5 0.3-18.8 0.42-0.85 0.02-1.7 0.04-2.58 0.06-2.38 0.04-4.76 0.07-7.15 0.1-0.71 0.01-1.42 0.03-2.15 0.04-1.71 0.01-3.42-0.08-5.12-0.2-4.56-4.56-3.05-14.7-3.11-20.9 0-2.06 0.01-4.12 0.02-6.17 0.01-1.15 0.01-2.3 0.01-3.48 0.01-3.8 0.03-7.6 0.05-11.4l0.03-8.22c0.02-5.88 0.05-11.8 0.07-17.6 0.04-8.5 0.08-17 0.11-25.5 0.05-13.8 0.11-27.6 0.17-41.4 0.05-13.4 0.11-26.8 0.16-40.2 0.01-0.82 0.01-1.65 0.01-2.5 0.02-4.15 0.04-8.3 0.05-12.4 0.14-34.4 0.28-68.7 0.43-103 3.29-0.88 6.17-1.12 9.59-1.11z" fill="#F9FCFD"/>
<path transform="translate(1139,690)" d="m0 0c1 0.23 2 0.46 3.03 0.7 5.24 1.2 9.42 2.35 14 5.3 0.82 0.48 1.64 0.97 2.48 1.47 8.34 5.07 14.5 10 19.9 18.3 1.54 2.5 1.54 2.5 4.66 3.22l1-3h2c0.24-0.58 0.48-1.15 0.72-1.75 1.54-2.71 3.35-4.29 5.72-6.31 3.19-2.72 3.19-2.72 6.21-5.62 1.61-1.58 3.34-2.32 5.35-3.32l1-2c2.04-0.96 2.04-0.96 4.62-1.94 3.03-1.15 5.94-2.32 8.88-3.68 16.2-6.38 35.4-4.37 51.5 1.75 2.44 1.17 4.72 2.45 7.03 3.87 0.97 0.58 1.94 1.17 2.94 1.77 8.65 5.35 8.65 5.35 11.1 8.23v2c0.58 0.17 1.15 0.35 1.75 0.53 3.38 2.21 4.64 5.49 6.31 9.03 0.53 1.09 0.53 1.09 1.07 2.21 6.11 12.9 7.03 24.4 7 38.6v3.58c0.01 3.86 0.01 7.72 0 11.6 0 2.69 0 5.39 0.01 8.08 0 5.63 0 11.3-0.01 16.9-0.01 6.51 0 13 0 19.5 0.01 5.6 0.01 11.2 0 16.8 0 3.34 0 6.68 0.01 10 0 3.71-0.01 7.42-0.01 11.1 0 1.11 0 2.22 0.01 3.37-0.01 1.5-0.01 1.5-0.01 3.04v2.66c-0.13 1.98-0.13 1.98-1.13 2.98-1.83 0.1-3.66 0.14-5.5 0.15-1.17 0-2.35 0.01-3.56 0.01-1.92 0.01-1.92 0.01-3.87 0.01-1.31 0-2.61 0-3.95 0.01-2.77 0-5.53 0.01-8.29 0.01-3.55 0-7.09 0.01-10.6 0.03-3.37 0.01-6.75 0.01-10.1 0.01-1.92 0.01-1.92 0.01-3.87 0.02-1.18 0-2.36 0-3.57-0.01-1.04 0-2.08 0.01-3.16 0.01-2.47-0.25-2.47-0.25-4.47-2.25-0.17-3.09-0.21-6.08-0.16-9.17 0-0.95 0.01-1.9 0.02-2.88 0.01-2.08 0.03-4.15 0.05-6.22 0.04-3.3 0.06-6.59 0.07-9.88 0.05-9.37 0.12-18.7 0.21-28.1 0.06-5.73 0.09-11.5 0.11-17.2 0.01-2.17 0.03-4.34 0.06-6.52 0.42-22.9 0.42-22.9-9.92-42.8-1.55-1.43-1.55-1.43-4.44-2.19v-2c-15.5-2.25-15.5-2.25-30 2-1.68 1.31-3.36 2.64-5 4h-2c-0.15 0.87-0.15 0.87-0.31 1.75-0.69 2.25-0.69 2.25-2.19 3.94-1.95 3.01-2.04 5.56-2.29 9.09-0.21 2.22-0.21 2.22-0.72 4.09-0.51 2.23-0.61 4.16-0.6 6.44v2.59c0 0.92 0.01 1.85 0.01 2.81 0 0.98 0.01 1.97 0.01 2.98 0 2.14 0.01 4.27 0.01 6.41 0.02 3.37 0.02 6.74 0.03 10.1 0.01 7.15 0.03 14.3 0.05 21.5l0.06 24.9c0 3.33 0.01 6.67 0.03 10 0 2.03 0 4.06 0.01 6.09 0 0.93 0.01 1.87 0.01 2.83 0 2.16-0.05 4.33-0.11 6.49-1.7 1.7-3.87 1.19-6.19 1.24-1.11 0.02-2.22 0.05-3.36 0.08-1.21 0.02-2.41 0.04-3.66 0.07-1.85 0.04-1.85 0.04-3.73 0.07-2.61 0.06-5.23 0.11-7.84 0.15-2.68 0.05-5.37 0.11-8.05 0.17-3.85 0.09-7.71 0.16-11.6 0.23-1.21 0.03-2.41 0.06-3.64 0.09-1.12 0.02-2.24 0.03-3.39 0.05-0.98 0.02-1.97 0.04-2.98 0.06-2.72-0.22-4.23-0.93-6.6-2.21-0.02-1.89-0.02-1.89-0.03-3.82-0.1-11.9-0.2-23.7-0.31-35.6-0.05-6.1-0.11-12.2-0.16-18.3-0.04-5.88-0.1-11.8-0.15-17.6-0.02-2.25-0.04-4.5-0.06-6.74-0.02-3.14-0.05-6.28-0.08-9.42-0.01-0.94-0.02-1.88-0.02-2.84-0.01-0.85-0.02-1.71-0.03-2.59-0.01-0.74-0.01-1.48-0.02-2.25-0.03-1.92-0.03-1.92-1.14-3.82-0.26-1.89-0.51-3.79-0.75-5.69-1.22-7.46-3.76-11.6-9.75-16.1-5.89-4.07-11.1-4.53-18.1-4.5-0.85-0.02-1.7-0.03-2.58-0.05-4.61 0-7.38 0.03-10.9 3.36-0.87 0.14-1.73 0.29-2.62 0.44-0.79 0.18-1.57 0.37-2.38 0.56-1.04 1.83-1.04 1.83-2 4-0.62 0.96-0.62 0.96-1.25 1.94-7.07 11.1-4.93 26.1-5.01 38.8-0.02 3.3-0.05 6.61-0.08 9.92-0.07 8.2-0.13 16.4-0.19 24.6-0.05 6.96-0.1 13.9-0.16 20.9-0.03 3.27-0.05 6.53-0.07 9.8-0.02 1.98-0.03 3.96-0.05 5.95 0 0.91-0.01 1.82-0.01 2.76-0.07 6.23-0.07 6.23-1.18 7.34-1.84 0.1-3.68 0.13-5.51 0.13-1.18 0-2.36 0.01-3.57 0.01-1.29 0-2.57-0.01-3.89-0.01-1.3 0-2.61 0-3.96 0.01-2.76 0-5.53 0-8.3-0.01-3.55-0.01-7.11 0-10.7 0-3.38 0.01-6.76 0.01-10.1 0-1.28 0-2.57 0.01-3.89 0.01-1.76-0.01-1.76-0.01-3.57-0.01h-3.16c-2.35-0.13-2.35-0.13-3.35-1.13-1.23-9.44-1.14-19-1.13-28.5v-4.52c-0.01-4.06-0.01-8.11 0-12.2 0-4.26 0-8.52-0.01-12.8 0-7.15 0-14.3 0.01-21.4 0.01-8.25 0-16.5 0-24.7-0.01-7.1-0.01-14.2 0-21.3 0-4.23 0-8.46-0.01-12.7 0-3.97 0-7.95 0.01-11.9v-4.36c-0.01-2 0-3.99 0-5.98v-3.37c0.14-3.47 0.58-6.81 1.13-10.2 3.22-0.95 6.12-1.13 9.47-1.15 1.1 0 2.19-0.01 3.32-0.01 1.17-0.01 2.35-0.01 3.56-0.01s2.42 0 3.67-0.01c2.56 0 5.11-0.01 7.67-0.01 3.93 0 7.85-0.02 11.8-0.03 2.48-0.01 4.96-0.01 7.44-0.01 1.18-0.01 2.36-0.01 3.58-0.02 1.09 0 2.18 0 3.3 0.01 0.96 0 1.92-0.01 2.91-0.01 2.3 0.25 2.3 0.25 4.3 2.25 0.15 2.74 0.19 5.38 0.12 8.12 0 0.76-0.01 1.51-0.02 2.29-0.03 1.86-0.06 3.73-0.1 5.59 0.59-0.5 1.19-0.99 1.8-1.5 6.12-5.02 12.4-9.44 19.2-13.5 1.1-0.68 2.2-1.36 3.34-2.06 3.72-2.11 7.44-3.24 11.6-4.19 0.73-0.17 1.46-0.34 2.22-0.51 10.6-2.25 21.4-2.23 31.8 0.76z" fill="#F8FBFC"/>
<path transform="translate(1e3 1013)" d="m0 0c0.62 0.25 1.24 0.49 1.88 0.75 0.99 0.4 0.99 0.4 2 0.81 1.2 0.48 1.2 0.48 2.44 0.96 6.86 2.8 13 6.11 18.9 10.7 1.51 1.19 3.1 2.27 4.7 3.33 0.12-0.84 0.24-1.68 0.36-2.55 0.25-1.65 0.25-1.65 0.51-3.32 0.16-1.09 0.32-2.18 0.49-3.31 0.64-2.82 0.64-2.82 2.64-4.82 2.39-0.25 2.39-0.25 5.42-0.26 1.14 0 2.27-0.01 3.44-0.02 1.85 0.01 1.85 0.01 3.73 0.02 1.89-0.01 1.89-0.01 3.81-0.01 2.66 0 5.33 0 7.99 0.01 3.42 0.01 6.83 0.01 10.2-0.01 3.25 0 6.51 0 9.76 0.01 1.23-0.01 2.46-0.01 3.73-0.02 1.7 0.01 1.7 0.01 3.44 0.02 1 0.01 2 0.01 3.03 0.01 2.4 0.25 2.4 0.25 4.4 2.25 0.24 2.93 0.24 2.93 0.24 6.77 0 0.7 0.01 1.4 0.01 2.13 0.01 2.37 0 4.73-0.01 7.1v5.08c0.01 4.61 0 9.22-0.01 13.8-0.01 4.82-0.01 9.63-0.01 14.4 0 8.08-0.01 16.2-0.02 24.2-0.01 9.36-0.02 18.7-0.02 28.1 0 8.99 0 18-0.01 27-0.01 3.83-0.01 7.66-0.01 11.5 0 4.51-0.01 9.02-0.02 13.5v4.98c0 2.26 0 4.51-0.01 6.77 0 1.26 0 2.53-0.01 3.83-0.12 2.8-0.12 2.8-1.12 3.8-2.92 0.16-5.81 0.26-8.73 0.32-0.89 0.02-1.78 0.04-2.7 0.06-1.91 0.05-3.81 0.09-5.72 0.13-2.85 0.05-5.71 0.12-8.57 0.19-4.57 0.1-9.14 0.19-13.7 0.26-1.69 0.03-3.37 0.06-5.06 0.09-2.26 0.05-4.51 0.08-6.76 0.1-1.26 0.02-2.53 0.04-3.83 0.06-2.92-0.21-2.92-0.21-4.92-2.21-0.15-2.58-0.19-5.05-0.13-7.62 0.01-0.71 0.02-1.42 0.03-2.14 0.02-1.75 0.06-3.49 0.1-5.24-0.6 0.31-1.2 0.62-1.82 0.94-2.18 1.06-2.18 1.06-5.18 2.06-0.33 0.99-0.67 1.98-1 3-14.7 11.2-31.5 16.2-49.8 16.2h-2.95c-8.23-0.07-15.9-0.4-23.3-4.19-1.37-0.46-2.75-0.89-4.13-1.31-15.1-5-26.9-14.5-36.9-26.7-0.66-0.8-1.33-1.59-2-2.42-3.23-4.01-5.93-7.83-8-12.6-0.33-0.7-0.66-1.4-1-2.12-2.1-4.56-3.67-9.02-5-13.9-0.33-0.56-0.65-1.13-0.99-1.72-1.43-3.22-1.76-6.49-2.14-9.96-0.08-0.75-0.17-1.5-0.25-2.27-1.77-17.2-1.47-35 5.38-51 0.68-1.77 1.37-3.54 2.06-5.31 4.18-10.3 4.18-10.3 6.94-11.7 0.98-1.75 0.98-1.75 1.87-3.81 1.61-3.38 3.31-5.67 6.13-8.19 0.33-0.66 0.65-1.32 1-2h2c0.39-0.72 0.78-1.44 1.18-2.18 2.06-3.2 4.15-4.67 7.29-6.7 1.69-1.06 1.69-1.06 2.53-3.12 2.62-1.57 3.87-2 7-2v-2c18.5-11.2 48.5-16.9 69.1-8.56z" fill="#F8FBFC"/>
<path transform="translate(601 575)" d="m0 0c1.09-0.01 2.19-0.01 3.32-0.02h3.56c1.21-0.01 2.42-0.01 3.67-0.01 2.56-0.01 5.11-0.01 7.67-0.01 3.93 0 7.85-0.02 11.8-0.04 2.48 0 4.96 0 7.44-0.01 1.18 0 2.36-0.01 3.58-0.02 1.09 0.01 2.18 0.01 3.3 0.01h2.91c2.3 0.25 2.3 0.25 4.3 2.25 0.26 2.32 0.26 2.32 0.28 5.28 0.01 1.13 0.02 2.25 0.03 3.4 0 1.24 0.01 2.48 0.01 3.75 0.01 1.3 0.02 2.6 0.03 3.93 0.03 3.57 0.04 7.13 0.05 10.7 0.02 3.73 0.05 7.45 0.07 11.2 0.05 7.05 0.09 14.1 0.12 21.2 0.04 8.02 0.09 16 0.14 24.1 0.1 16.5 0.19 33 0.27 49.6 1.28-0.96 2.56-1.92 3.85-2.88 0.71-0.54 1.43-1.07 2.16-1.62 2.19-1.66 4.31-3.39 6.43-5.13 4.26-3.33 8.56-5.39 13.6-7.37 1.09-0.54 2.19-1.08 3.31-1.63 18.5-6.89 42.2-3.64 59.9 4.25 8.14 3.99 15.6 8.69 21.8 15.4v2c0.58 0.17 1.15 0.35 1.74 0.53 3.37 2.19 4.65 5.44 6.32 8.97 0.35 0.72 0.7 1.45 1.06 2.2 8.64 18.3 7.04 38 7.05 57.8 0 2.44 0 4.88 0.01 7.32v15.2c0 6.51 0.02 13 0.03 19.5 0.02 5.02 0.02 10 0.02 15.1 0 2.4 0 4.81 0.01 7.21 0.01 3.34 0.01 6.68 0 10 0.01 1 0.01 2 0.02 3.02-0.01 0.91-0.01 1.81-0.01 2.75v2.39c-0.25 1.92-0.25 1.92-2.25 3.92-2.3 0.29-2.3 0.29-5.2 0.35-1.08 0.02-2.17 0.05-3.29 0.08-1.76 0.02-1.76 0.02-3.56 0.05-1.81 0.04-1.81 0.04-3.66 0.07-2.55 0.05-5.11 0.09-7.67 0.13-3.91 0.06-7.82 0.15-11.7 0.23-2.48 0.05-4.96 0.09-7.44 0.13-1.76 0.04-1.76 0.04-3.55 0.08-1.09 0.01-2.19 0.03-3.32 0.04-0.96 0.02-1.92 0.03-2.91 0.05-2.89-0.23-5.04-1-7.67-2.21 0-1.3 0-2.6-0.01-3.94-0.01-12.3-0.06-24.6-0.12-36.8-0.04-6.32-0.06-12.6-0.07-19 0-6.1-0.03-12.2-0.07-18.3-0.02-2.32-0.02-4.64-0.02-6.96 0.54-19.6 0.54-19.6-7.95-36.5-7.81-7.46-15.1-9.64-25.7-9.41-5.08 0.32-8.07 0.59-12 3.94-0.81 0.45-1.61 0.9-2.44 1.37-2.97 1.88-5.14 4.08-7.56 6.63-0.68 0.59-1.36 1.19-2.06 1.81-9.53 10.8-7.11 26.7-7.2 40.1-0.02 3.17-0.05 6.35-0.08 9.53-0.07 7.87-0.13 15.8-0.19 23.6-0.05 6.68-0.1 13.4-0.16 20-0.03 3.14-0.05 6.27-0.07 9.41-0.02 1.9-0.03 3.81-0.05 5.71-0.01 0.88-0.01 1.76-0.01 2.66-0.07 5.98-0.07 5.98-1.18 7.1-1.84 0.09-3.69 0.11-5.53 0.11h-3.58c-1.29-0.01-2.57-0.01-3.9-0.02h-3.96c-3.48-0.01-6.97-0.02-10.4-0.03-3.55-0.01-7.1-0.01-10.7-0.02-6.97-0.01-14-0.02-20.9-0.04-1.61-3.56-2.25-6.31-2.24-10.2v-3.15c0.01-1.15 0.02-2.29 0.03-3.47v-3.74c0.01-3.48 0.02-6.96 0.04-10.4 0.02-3.82 0.03-7.65 0.04-11.5 0.02-7.89 0.05-15.8 0.09-23.7l0.09-21.6c0.11-29.8 0.25-59.6 0.39-89.4 0.07-12.7 0.13-25.4 0.19-38 0.12-26 0.24-51.9 0.37-77.8 3.25-0.87 6.1-1.14 9.47-1.15z" fill="#F9FCFD"/>
<path transform="translate(936,695)" d="m0 0c1.09 0.43 2.19 0.87 3.31 1.31 7.52 3.3 14.5 7.3 21 12.4 1.88 1.49 1.88 1.49 4.73 3.07 0.66 0.41 1.32 0.83 2 1.25v2c0.64 0.27 1.28 0.54 1.94 0.81 2.06 1.19 2.06 1.19 3.06 4.19 0.61 0.3 1.22 0.59 1.85 0.89 2.81 1.45 3.85 3.18 5.59 5.8 2.01 3 4.03 5.95 6.25 8.81 4.33 6.04 6.39 13.5 8.65 20.5 0.56 1.71 1.17 3.4 1.78 5.08 5.25 17.6 1.68 38.8-4.12 55.9-0.94 1.7-1.94 3.37-3 5-0.84 1.5-1.67 3-2.5 4.5-0.65 1.16-0.65 1.16-1.3 2.35-0.95 1.69-1.89 3.39-2.82 5.09-1.38 2.06-1.38 2.06-4.38 4.06l-0.94 1.88c-1.31 2.61-2.84 4.23-5.06 6.12h-3c-0.22 0.58-0.45 1.15-0.68 1.75-7.04 12-27.8 19.2-40.6 22.6-0.89 0.23-1.78 0.45-2.7 0.69-0.73 0.2-1.45 0.39-2.2 0.6-8.66 2.3-16.9 2.5-25.7 2.36-3.89-0.04-7.57 0.06-11.4 0.66-3.8 0.39-4.53 0.17-7.66-1.62-2.2-0.24-4.41-0.4-6.62-0.5-15.8-0.94-15.8-0.94-19.4-4.5-1.86-0.59-1.86-0.59-3.75-1.19-12.4-4.02-22.3-10.6-32.2-18.8-0.53-0.43-1.06-0.86-1.61-1.3-3.66-3-6.55-5.94-9.39-9.7v-2h-2c-1.28-2.18-2.55-4.37-3.81-6.56-0.36-0.61-0.72-1.22-1.08-1.85-5.57-9.65-8.9-19.5-10.1-30.6l-1-1c-1.27-15.2-0.69-29.8 5-44 0.32-0.86 0.64-1.72 0.98-2.61 5.39-13.2 13.4-25 24.8-33.7 2.22-1.64 2.22-1.64 3.9-3.46 1.33-1.27 1.33-1.27 3.33-1.27v-2c11.6-6.69 23-12.5 36-16 1.13-0.34 2.25-0.68 3.41-1.04 22-5.91 50.4-4.79 71.6 4.04z" fill="#F8FBFC"/>
<path transform="translate(1431 689)" d="m0 0c0.81 0.12 1.62 0.24 2.45 0.36 8.09 1.3 15.5 3.94 23 7.33 0.61 0.27 1.22 0.55 1.86 0.83 5.84 2.74 11 6.3 16.1 10.2 0.68 0.5 1.36 1 2.06 1.51 11.4 9.14 19.8 23.7 23.9 37.5 0.33 0.96 0.67 1.93 1.01 2.93 2.94 9.15 3.24 18.8 3.67 28.3 0.05 1.03 0.1 2.07 0.15 3.14 0.04 0.97 0.08 1.94 0.12 2.94 0.03 0.87 0.07 1.75 0.1 2.65-0.05 2.02-0.05 2.02-1.05 3.02-1.63 0.11-3.27 0.14-4.91 0.16-1.06 0.01-2.12 0.02-3.21 0.03-1.18 0-2.35 0.01-3.56 0.01-1.85 0.02-1.85 0.02-3.73 0.03-3.38 0.03-6.76 0.05-10.1 0.07-3.53 0.02-7.05 0.05-10.6 0.08-6.69 0.05-13.4 0.09-20.1 0.13-7.61 0.05-15.2 0.11-22.8 0.16-15.7 0.12-31.3 0.23-47 0.33 0.27 2.06 0.55 4.13 0.84 6.19 0.16 1.15 0.31 2.3 0.48 3.49 1.48 7.24 5.57 11.8 11.4 16.1 8.91 5.65 16.4 7.53 26.9 7.62 0.87 0.02 1.75 0.03 2.65 0.04 8.83-0.12 16.5-2.09 23.8-7.16 4.83-3.31 4.83-3.31 7-3.31l1-3c1.87-1.85 3.92-3.37 6-5 3.32 1.28 6.51 2.7 9.68 4.31 0.88 0.44 1.76 0.89 2.67 1.34 1.31 0.67 1.31 0.67 2.65 1.35l4.62 2.31c0.81 0.41 1.62 0.81 2.45 1.23 2.34 1.16 4.69 2.29 7.04 3.41 1.47 0.7 2.93 1.41 4.39 2.11 0.7 0.33 1.41 0.66 2.14 1 2.78 1.34 5 2.5 6.97 4.92 0.39 2.02 0.39 2.02-0.48 4.12-0.71 1.03-0.71 1.03-1.45 2.09-0.47 0.69-0.94 1.38-1.42 2.1-1.26 1.71-1.26 1.71-2.26 2.71-1.16 1.41-2.31 2.82-3.46 4.23-7.99 9.13-17.4 16.1-28.4 21.3-0.69 0.32-1.38 0.65-2.09 0.99-4.63 2.07-9.15 3.37-14.1 4.51-2.74 0.76-5.47 1.53-8.19 2.31-5.81 1.42-11.5 1.82-17.4 1.82h-2.14-4.43c-2.24-0.01-4.48 0-6.72 0h-4.34-3.93c-5.35-0.18-10.8-0.43-15.8-2.51-0.67-0.27-1.33-0.54-2.02-0.81-0.65-0.27-1.31-0.54-1.98-0.81-1.24-0.44-2.48-0.87-3.75-1.31-9.57-3.63-18.1-8.61-26.2-14.7-0.71-0.5-1.42-0.99-2.15-1.5-5.08-3.59-8.93-7.7-12.8-12.5-0.99-1.15-0.99-1.15-2.01-2.31-9.72-11.5-14.9-25.1-18-39.7l-1-1c-0.22-4.35-0.19-8.7-0.19-13 0-2.18-0.02-4.36-0.04-6.54v-4.18c-0.01-1.26-0.01-2.53-0.02-3.84 0.24-3.28 0.87-5.44 2.25-8.39 0.46-1.73 0.89-3.46 1.31-5.19 1.52-5.71 3.9-10.6 6.69-15.8 0.77-1.54 1.54-3.08 2.31-4.63 0.56-1.11 1.11-2.22 1.69-3.37h2c0.2-0.66 0.41-1.32 0.62-2 3.45-7.52 8.99-12.9 15.4-18 0.92-0.74 1.84-1.47 2.79-2.23 9.41-7.28 19-12.7 30.2-16.8 1.05-0.42 1.05-0.42 2.13-0.84 15.6-5.79 33.2-5.22 49.4-2.85z" fill="#F8FBFC"/>
<path transform="translate(385 897)" d="m0 0c1.07-0 2.14-0 3.25-0.01 2.25 0 4.5 0.01 6.75 0.01 3.46 0.02 6.91 0 10.4-0.01 2.19 0 4.38 0.01 6.57 0.01 1.03-0 2.07-0.01 3.14-0.01 0.95 0 1.91 0.01 2.89 0.02h2.55c2.05 0.26 2.05 0.26 4.05 2.26 0.25 2.12 0.25 2.12 0.25 4.8 0 1.02 0 2.04 0.01 3.1-0.01 1.69-0.01 1.69-0.02 3.42 0 1.2 0 2.39 0.01 3.62 0 3.32-0.01 6.65-0.02 9.97-0.01 3.59 0 7.17 0 10.8 0 6.21-0.01 12.4-0.02 18.6-0.01 8.98-0.02 18-0.02 26.9-0.01 14.6-0.02 29.1-0.04 43.7-0.02 14.2-0.03 28.3-0.04 42.4v2.64c0 4.37-0.01 8.75-0.01 13.1-0.02 36.3-0.06 72.6-0.1 109-5.67 0.14-11.3 0.28-17 0.42-1.92 0.05-3.84 0.1-5.76 0.15-5.53 0.14-11.1 0.26-16.6 0.36-2.57 0.06-5.14 0.16-7.71 0.27-1.54 0.05-3.08 0.09-4.62 0.14-1.05 0.06-1.05 0.06-2.12 0.12-1.95 0.04-1.95 0.04-5.19-0.46-3.21-3.53-3.36-6.69-3.3-11.3 0.02-1.96 0.02-1.96 0.03-3.96 0.01-0.71 0.02-1.42 0.04-2.15 0.03-2.34 0.06-4.67 0.07-7.01 0.03-3.55 0.07-7.11 0.11-10.7 0.06-6.27 0.08-12.5 0.09-18.8v-3.43c0.01-2.35 0.01-4.7 0.01-7.06 0.02-6.25 0.03-12.5 0.05-18.8 0.01-1.29 0.01-2.59 0.01-3.92 0.06-18.2 0.12-36.4 0.18-54.6 0.01-2.92 0.02-5.85 0.03-8.77 0-0.73 0-1.46 0.01-2.2 0.04-11.9 0.07-23.8 0.1-35.6 0.03-12.3 0.07-24.5 0.11-36.8 0.03-7.53 0.05-15.1 0.07-22.6 0.01-5.74 0.03-11.5 0.06-17.2 0.01-2.35 0.01-4.71 0.01-7.07 0.01-3.2 0.02-6.4 0.04-9.61v-2.85c0-0.85 0.01-1.71 0.02-2.58 0-0.74 0-1.48 0.01-2.24 0.25-1.81 0.25-1.81 2.25-3.81 6.52-2.12 12.6-2.3 19.4-2.27z" fill="#F9FCFD"/>
<path transform="translate(864 1011)" d="m0 0c1.47-0.02 1.47-0.02 2.96-0.04 5.89-0.01 10.8 0.55 16.5 2.23 1.69 0.44 1.69 0.44 3.41 0.89 6.31 1.81 11 3.36 15.6 8.11-0.64 2.7-1.41 5.27-2.38 7.87-0.23 0.64-0.47 1.28-0.71 1.93-2.73 6.56-6.32 12.8-9.68 19-1.96 3.67-3.75 7.29-5.23 11.2-0.87 1.94-1.74 3.88-2.63 5.81-0.44 0.98-0.89 1.95-1.35 2.96-0.34 0.73-0.67 1.47-1.02 2.23-5.51-0.63-5.51-0.63-7.82-2.38-8.86-6.58-22.2-6.42-32.6-4.93-7.04 1.4-14.8 4.27-19 10.4-0.52 0.97-1.03 1.94-1.56 2.94-0.42 0.78-0.84 1.56-1.26 2.37-6.92 13.3-5.93 28-6.06 42.6-0.02 1.93-0.04 3.87-0.06 5.8-0.06 5.07-0.11 10.1-0.15 15.2-0.06 5.19-0.11 10.4-0.17 15.6-0.1 10.2-0.2 20.3-0.3 30.4-5.67 0.14-11.3 0.28-17 0.42-1.92 0.05-3.84 0.1-5.77 0.15-6.4 0.16-12.8 0.31-19.2 0.43-1.29 0.02-1.29 0.02-2.6 0.05-2.38 0.05-4.77 0.08-7.16 0.1-0.71 0.02-1.41 0.03-2.14 0.05-1.71 0.01-3.41-0.09-5.1-0.2-2.85-2.85-2.25-4.76-2.26-8.76 0-0.7 0-1.4-0.01-2.13 0-2.36 0-4.73 0.01-7.1 0-1.69-0.01-3.38-0.01-5.07-0.01-4.6-0.01-9.21 0-13.8v-14.4c-0.01-8.08 0-16.2 0.01-24.2 0.01-9.35 0-18.7-0.01-28-0.01-8.01-0.01-16 0-24 0-4.79 0-9.59-0.01-14.4 0-4.5 0-9.01 0.01-13.5 0.01-1.66 0.01-3.32 0-4.97 0-2.26 0-4.51 0.01-6.77 0-1.26 0.01-2.52 0.01-3.83 0.25-2.92 0.25-2.92 2.25-4.92 2.43-0.25 2.43-0.25 5.53-0.25h3.51c1.26 0 2.51 0.01 3.81 0.02h3.88c2.71 0 5.43 0.01 8.14 0.02 3.49 0.02 6.98 0.02 10.5 0.02 3.32 0 6.64 0.01 9.95 0.02h3.81c1.16 0.01 2.31 0.02 3.5 0.02 1.53 0.01 1.53 0.01 3.1 0.01 2.31 0.14 2.31 0.14 3.31 1.14 0.08 1.49 0.1 2.98 0.1 4.47-0.01 0.9-0.01 1.8-0.01 2.72-0.02 1.42-0.02 1.42-0.03 2.87 0 0.95-0.01 1.9-0.01 2.88-0.02 2.35-0.03 4.7-0.05 7.06 3.73-0.78 4.99-1.8 7.37-4.81 2.96-3.55 5.6-5.95 9.63-8.19h2v-2c6.1-4.82 13-7.19 20.4-9.24 4.99-1.47 8.57-1.95 14.2-1.95z" fill="#F8FBFC"/>
<path transform="translate(456 1016)" d="m0 0c1.11-0.01 2.23-0.01 3.38-0.02h3.66c1.23-0.01 2.47-0.01 3.74-0.01 2.62-0.01 5.23-0.01 7.85-0.01 2.69 0 5.38-0.01 8.07-0.02 3.86-0.02 7.73-0.02 11.6-0.03 1.21 0 2.42-0.01 3.66-0.02 1.67 0.01 1.67 0.01 3.38 0.01h2.98c2.35 0.25 2.35 0.25 4.35 2.25 0.25 2.94 0.25 2.94 0.24 6.8 0.01 0.71 0.01 1.42 0.01 2.15 0 2.38-0.01 4.77-0.02 7.15v5.12c0 4.64-0.01 9.27-0.02 13.9-0.02 4.85-0.02 9.69-0.02 14.5-0.01 9.18-0.02 18.4-0.04 27.5-0.02 10.4-0.04 20.9-0.05 31.3-0.02 21.5-0.05 43-0.1 64.5-1.88 0.16-3.76 0.33-5.64 0.49-1.57 0.14-1.57 0.14-3.17 0.28-4.95 0.35-9.89 0.35-14.9 0.32h-3.17c-3.31-0.01-6.61-0.02-9.91-0.03-2.25-0.01-4.51-0.01-6.77-0.02-5.49-0.01-11-0.02-16.5-0.04-2.25-3.61-2.25-6.6-2.25-10.8 0-0.68-0.01-1.36-0.01-2.07-0.01-2.28 0-4.57 0.01-6.86-0.01-1.63-0.01-3.27-0.02-4.91 0-4.46 0-8.91 0.01-13.4 0-4.66 0-9.32-0.01-14 0-7.82 0-15.6 0.01-23.5 0.01-9.04 0.01-18.1 0-27.1-0.01-7.77-0.01-15.5-0.01-23.3 0.01-4.64 0.01-9.28 0-13.9 0-4.36 0-8.72 0.01-13.1v-4.8c-0.01-2.18 0-4.37 0.01-6.55v-3.71c0.24-2.96 0.6-4.64 2.25-7.08 2.58-1.29 4.45-1.14 7.34-1.15z" fill="#F9FCFD"/>
<path transform="translate(0)" d="m0 0h1600v1600h-1600v-1600zm1 1v1597c19.1 0.83 19.1 0.83 38.2 1.12 1.13 0.01 2.25 0.01 3.41 0.01 3.68 0 7.36 0 11-0.01 2.71 0 5.43 0 8.14 0.01 5.87 0 11.7 0 17.6-0.01h26.4c15 0.01 30 0 44.9 0 15.2-0.01 30.3-0.01 45.5-0.01h2.91 14.7c35.4 0.01 70.8 0 106 0 35-0.01 70.1-0.01 105-0.02h3.3 29.8 74.2 3.41c54.7 0 109-0.01 164-0.01 19-0.01 38-0.01 57-0.01h3.57c54.8-0.01 110-0.01 164-0.01 3.55-0.01 7.11-0.01 10.7-0.01h70.7c46.9 0 93.8 0 141-0.01h6.7c100 0 201-0.01 301-0.02h2.85c47-0.01 94.1-0.01 141-0.02v-8h-2l-1 4-4-1v-8l5-1 1 3c1.2-0.98 1.2-0.98 1.12-2.84v-2.46c0.01-1.4 0.01-1.4 0.01-2.83 0-1.57 0-1.57-0.01-3.16 0.01-1.66 0.01-1.66 0.01-3.34 0-3.76 0-7.51-0.01-11.3 0-2.71 0-5.42 0.01-8.12 0-5.94 0-11.9-0.01-17.8v-26.6c0.01-15.1 0-30.2 0-45.3-0.01-15.5-0.01-31-0.01-46.5v-2.98-15.1c0.01-36 0-72.1 0-108-0.01-48.7-0.01-97.4-0.02-146 0-117-0.01-234-0.03-352-0.02-262-0.04-523-0.06-793h-1598z" fill="#06070A"/>
<path transform="translate(641,1064)" d="m0 0c1.85 0.44 3.7 0.83 5.56 1.19 9 2.17 15.9 6.99 21.2 14.6 2.21 3.89 3.73 8 5.25 12.2 0.5 0.99 0.5 0.99 1 2 1.14 11.5 1.34 23.9-5 34-1.49 0.49-1.49 0.49-3 1-0.1 0.58-0.21 1.15-0.31 1.75-1.71 5.59-8.74 8.57-13.5 11.2-8.77 4.15-21.1 4.03-30.2 1.02-0.65-0.18-1.3-0.37-1.97-0.56-9.62-3.07-16.6-8.93-21.6-17.6-4.62-9.22-4.86-17.6-4.41-27.8 0.02-0.81 0.04-1.62 0.06-2.46 0.62-9.48 8.22-16.8 14.6-23.2 4.33-3.73 9.03-5.5 14.4-7.22 1.01-0.32 1.01-0.32 2.04-0.65 5.61-1.65 10.8-2.88 15.9 0.53z" fill="#000002"/>
<path transform="translate(995 1064)" d="m0 0c0.79 0 1.58 0.01 2.4 0.01 5.67 0.12 10.6 0.67 15.7 3.3 0.67 0.33 1.34 0.66 2.03 1 10 5.56 15.5 14.3 19 25 2.09 8.23 2.11 18.1-1 26-0.24 0.69-0.49 1.39-0.74 2.1-3.48 8.98-9.46 15.5-18 19.9-10.3 4.42-21.5 5.19-32.3 1.97-0.79-0.21-1.59-0.42-2.41-0.64-8.63-2.79-16-9.45-21.3-16.7-3.22-6.68-3.64-13.2-3.59-20.5 0-0.89 0.01-1.77 0.01-2.68 0.2-10.6 2.63-19.6 10.2-27.4 8.95-8.16 18-11.5 30.1-11.4z" fill="#000002"/>
<path transform="translate(911 743)" d="m0 0c9.17 5.51 17.8 13.9 20.9 24.4 2.45 11.6 2.59 26.8-3.88 37.1-0.55 0.7-1.09 1.4-1.65 2.12-0.46 0.59-0.91 1.18-1.38 1.78-2.31 2.6-4.3 3.51-7.62 4.22-0.5 1.49-0.5 1.49-1 3-7.88 5.78-17.4 6.26-26.8 5.76-0.72-0.04-1.44-0.08-2.18-0.12-8.65-0.61-14.2-3.69-21.1-8.64-0.86-0.6-0.86-0.6-1.74-1.22-7.11-5.41-9.91-12.2-11.3-20.8-0.28-3.17-0.33-6.31-0.32-9.5-0.01-0.79-0.03-1.58-0.05-2.39 0-10.4 3.88-19.2 10.9-26.8 4.65-4.19 8.6-6.98 14.5-9.26 1.29-0.52 1.29-0.52 2.62-1.05 9.26-2.59 21.2-2.62 30 1.43z" fill="#000002"/>
<path transform="translate(499,913)" d="m0 0c3.19 2.12 3.19 2.12 5 4v2c0.88 0.3 0.88 0.3 1.77 0.61 4.93 3.08 7.34 10 9.23 15.4 1.74 8.78 2.07 17.4-3 25-0.43 0.95-0.87 1.9-1.31 2.88-4.77 8.82-11.5 14-21.1 16.9-10.3 2.46-17.8 0.96-27.6-2.81v-2c-0.76-0.29-1.53-0.58-2.31-0.88-2.69-1.12-2.69-1.12-5.69-3.12v-2c-0.99-0.33-1.98-0.66-3-1-0.7-1.32-1.37-2.65-2-4l-2-1c-0.76-2.14-1.44-4.31-2.06-6.5-0.88-4.06-0.88-4.06-2.94-7.5-0.36-5.34 0.57-9.76 2.31-14.8 0.22-0.66 0.43-1.32 0.65-2 1.17-3.45 2.22-5.91 5.04-8.25 0.68-0.89 1.36-1.77 2.06-2.69 0.64-0.76 1.28-1.52 1.94-2.31h2c0.25-0.64 0.5-1.28 0.75-1.94 1.25-2.06 1.25-2.06 3.37-2.81 0.62-0.08 1.24-0.16 1.88-0.25v-2c11.9-4.79 25.5-4.94 37 1z" fill="#F9FCFD"/>
<path transform="translate(1413 729)" d="m0 0c1.07-0.01 1.07-0.01 2.17-0.02 7.32 0.1 14.3 1.77 20.2 6.33 4.87 5.14 8.88 11.5 9.07 18.7-0.03 0.75-0.05 1.49-0.07 2.26-7.05 0.03-14.1 0.05-21.1 0.06-2.39 0-4.78 0.01-7.17 0.02-3.46 0.01-6.91 0.02-10.4 0.02-1.58 0.01-1.58 0.01-3.19 0.02-7.09 0-14.1-0.42-21.1-1.12-1.33-5.81 0.14-8.88 3-14 2.89-4.46 6.04-7 11-9 0.58-0.28 1.17-0.55 1.78-0.84 5.24-2.18 10.2-2.44 15.8-2.47z" fill="#000002"/>
<path transform="translate(781,756)" d="m0 0c0.99 0.33 1.98 0.66 3 1v10c2.19-0.82 2.19-0.82 2.85-3.07 0.26-0.82 0.51-1.64 0.77-2.49 0.27-0.83 0.53-1.66 0.79-2.51 0.2-0.63 0.39-1.27 0.59-1.93h1c-0.14 1.46-0.29 2.92-0.44 4.38-0.08 0.81-0.16 1.62-0.24 2.46-0.32 2.16-0.32 2.16-1.32 4.16-0.1 2.02-0.13 4.04-0.13 6.07 0 1.2-0.01 2.41-0.01 3.65 0.01 1.27 0.01 2.54 0.02 3.84-0.01 1.27-0.01 2.54-0.02 3.85 0.01 1.81 0.01 1.81 0.01 3.66v3.37c-0.16 2.49-0.16 2.49 1.13 3.56 1.43 5.76 2.58 11.2 1 17-0.99-1.32-1.98-2.64-3-4l-4 17c-0.99-0.33-1.98-0.66-3-1-0.02-8.85-0.04-17.7-0.05-26.6-0.01-4.1-0.01-8.21-0.03-12.3-0.01-3.96-0.01-7.93-0.01-11.9-0.01-1.51-0.01-3.03-0.02-4.54v-6.34c-0.01-1.21-0.01-2.42-0.01-3.66 0.12-2.7 0.12-2.7 1.12-3.7z" fill="#050609"/>
<path transform="translate(568,764)" d="m0 0v88c-0.99-0.33-1.98-0.66-3-1v-86c2-1 2-1 3-1z" fill="#050609"/>
<path transform="translate(335,387)" d="m0 0c2.88 1.5 2.88 1.5 5 3-1.37 3.64-2.98 6.96-4.94 10.3-0.75 1.33-0.75 1.33-1.52 2.68-0.76 0.99-0.76 0.99-1.54 2.01-2.62 0-4.51-0.31-7-1 0.66-2.85 1.52-5.52 2.56-8.25 0.27-0.71 0.54-1.41 0.82-2.14 0.2-0.53 0.41-1.06 0.62-1.61l-2-1v-3c2.82-1.41 4.87-1.25 8-1z" fill="#050609"/>
<path transform="translate(668 1108)" d="m0 0c2.5 1 2.5 1 4.44 3.19 1.41 3.73 0.61 5.19-0.94 8.81-0.37 1.11-0.74 2.23-1.12 3.38-0.29 0.86-0.58 1.73-0.88 2.62-3.96 0.49-3.96 0.49-8 1l3-15-2-1c1.8-2.37 2.46-3 5.5-3z" fill="#06070A"/>
<path transform="translate(1190,783)" d="m0 0v49c-0.99-0.33-1.98-0.66-3-1v-47c2-1 2-1 3-1z" fill="#050609"/>
<path transform="translate(1031,1109)" d="m0 0 1 4h2c0.37 4.28-0.46 6.55-3 10-3.01 2.82-3.67 3-8 3-0.12-5.75-0.12-5.75 1-8 0.27-2.33 0.45-4.66 0.62-7 0.13-0.66 0.25-1.32 0.38-2 2.49-1.25 3.41-0.78 6 0z" fill="#06070A"/>
<path transform="translate(1317 1163)" d="m0 0c1.21 0.03 1.21 0.03 2.44 0.06 1.29 4.12 2.26 7.67 2 12-0.58 0.13-1.16 0.25-1.75 0.38-2.28 0.63-4.18 1.51-6.25 2.62-2.13-3.39-2.07-5.33-1.19-9.18 0.19-0.89 0.38-1.77 0.58-2.67 0.86-3.06 0.92-3.13 4.17-3.21z" fill="#06070A"/>
<path transform="translate(1438,739)" d="m0 0-1 3 2 1c0.36 5.43 0.36 5.43-1.19 7.88-2.37 1.47-4.07 1.34-6.81 1.12-2.02-6.19-2.02-6.19-1.94-9.25 2.07-3.85 4.91-5.09 8.94-3.75z" fill="#050609"/>
<path transform="translate(926,790)" d="m0 0c2 1 2 1 2.81 2.62 0.34 4.22-1.97 7.69-3.81 11.4-2.06 0.62-2.06 0.62-4 1-1.32-5.89-0.87-8.87 2-14 0.99-0.33 1.98-0.66 3-1z" fill="#06070A"/>
<path transform="translate(1374,1068)" d="m0 0c0.6 6.99 0.6 6.99-1.11 9.87-1.23 1.44-2.55 2.79-3.89 4.13-1.56-1.06-1.56-1.06-3-3 0.13-3.63 0.59-6.23 2.31-9.44 1.69-1.56 1.69-1.56 5.69-1.56z" fill="#06070A"/>
<path transform="translate(887,1067)" d="m0 0c2.44 0.19 2.44 0.19 5 1 1.38 1.69 1.38 1.69 2 4-0.38 3.25-0.38 3.25-1 6l-2-1c-1.68 0.28-3.35 0.61-5 1-1.24-3.71-0.71-6.19 0-10l1-1z" fill="#06070A"/>
<path transform="translate(1376,1055)" d="m0 0 5 1c-0.27 4.03-0.53 5.57-3.56 8.38-0.81 0.53-1.61 1.07-2.44 1.62-1.25-7.62-1.25-7.62 1-11z" fill="#06070A"/>
<path transform="translate(866,871)" d="m0 0c1.96 0.14 3.92 0.29 5.88 0.44 1.63 0.12 1.63 0.12 3.3 0.24 2.82 0.32 2.82 0.32 4.82 1.32l-1 3c-4.62-0.66-9.24-1.32-14-2l1-3z" fill="#050609"/>
<path transform="translate(1032,1174)" d="m0 0c0.99 0.33 1.98 0.66 3 1-0.01 1.05-0.02 2.1-0.04 3.18 0 1.37-0.01 2.75-0.02 4.13-0.01 0.69-0.02 1.38-0.03 2.09-0.01 3.15 0.09 5.59 1.09 8.6l-5-1c0.16-0.83 0.33-1.65 0.5-2.5 0.56-3.92 0.56-7.54 0.5-11.5v-4z" fill="#050609"/>
<path transform="translate(829,858)" d="m0 0c5.48 1.55 10.1 4.16 15 7l-1 2c-4.92-2.01-9.43-4.29-14-7v-2z" fill="#050609"/>
<path transform="translate(631,1062)" d="m0 0c6.75-0.12 6.75-0.12 9 1v2h-10l1-3z" fill="#050609"/>
</svg>
