<svg xmlns="http://www.w3.org/2000/svg" xmlns:xlink="http://www.w3.org/1999/xlink" width="100" zoomAndPan="magnify" viewBox="0 0 75 74.999997" height="100" preserveAspectRatio="xMidYMid meet" version="1.0">
	<defs>
		<linearGradient x1="0" gradientTransform="matrix(0.75, 0, 0, 0.75, 0.0000015, -0.000001)" y1="0" x2="99.999996" gradientUnits="userSpaceOnUse" y2="0" id="d5b30160b1">
			<stop stop-opacity="1" stop-color="rgb(0%, 0%, 0%)" offset="0"/>
			<stop stop-opacity="1" stop-color="rgb(0.0808716%, 0.0778198%, 0.312805%)" offset="0.00390625"/>
			<stop stop-opacity="1" stop-color="rgb(0.161743%, 0.15564%, 0.627136%)" offset="0.0078125"/>
			<stop stop-opacity="1" stop-color="rgb(0.242615%, 0.233459%, 0.941467%)" offset="0.0117188"/>
			<stop stop-opacity="1" stop-color="rgb(0.323486%, 0.311279%, 1.255798%)" offset="0.015625"/>
			<stop stop-opacity="1" stop-color="rgb(0.404358%, 0.389099%, 1.568604%)" offset="0.0195312"/>
			<stop stop-opacity="1" stop-color="rgb(0.486755%, 0.468445%, 1.882935%)" offset="0.0234375"/>
			<stop stop-opacity="1" stop-color="rgb(0.567627%, 0.546265%, 2.197266%)" offset="0.0273438"/>
			<stop stop-opacity="1" stop-color="rgb(0.648499%, 0.624084%, 2.511597%)" offset="0.03125"/>
			<stop stop-opacity="1" stop-color="rgb(0.72937%, 0.701904%, 2.825928%)" offset="0.0351562"/>
			<stop stop-opacity="1" stop-color="rgb(0.811768%, 0.779724%, 3.140259%)" offset="0.0390625"/>
			<stop stop-opacity="1" stop-color="rgb(0.892639%, 0.857544%, 3.453064%)" offset="0.0429688"/>
			<stop stop-opacity="1" stop-color="rgb(0.973511%, 0.93689%, 3.767395%)" offset="0.046875"/>
			<stop stop-opacity="1" stop-color="rgb(1.054382%, 1.014709%, 4.081726%)" offset="0.0507812"/>
			<stop stop-opacity="1" stop-color="rgb(1.13678%, 1.092529%, 4.396057%)" offset="0.0546875"/>
			<stop stop-opacity="1" stop-color="rgb(1.217651%, 1.170349%, 4.710388%)" offset="0.0585938"/>
			<stop stop-opacity="1" stop-color="rgb(1.298523%, 1.249695%, 5.024719%)" offset="0.0625"/>
			<stop stop-opacity="1" stop-color="rgb(1.379395%, 1.327515%, 5.337524%)" offset="0.0664062"/>
			<stop stop-opacity="1" stop-color="rgb(1.461792%, 1.405334%, 5.651855%)" offset="0.0703125"/>
			<stop stop-opacity="1" stop-color="rgb(1.542664%, 1.483154%, 5.966187%)" offset="0.0742188"/>
			<stop stop-opacity="1" stop-color="rgb(1.623535%, 1.560974%, 6.280518%)" offset="0.078125"/>
			<stop stop-opacity="1" stop-color="rgb(1.704407%, 1.638794%, 6.594849%)" offset="0.0820312"/>
			<stop stop-opacity="1" stop-color="rgb(1.786804%, 1.71814%, 6.90918%)" offset="0.0859375"/>
			<stop stop-opacity="1" stop-color="rgb(1.867676%, 1.795959%, 7.221985%)" offset="0.0898438"/>
			<stop stop-opacity="1" stop-color="rgb(1.948547%, 1.873779%, 7.536316%)" offset="0.09375"/>
			<stop stop-opacity="1" stop-color="rgb(2.029419%, 1.951599%, 7.850647%)" offset="0.0976562"/>
			<stop stop-opacity="1" stop-color="rgb(2.111816%, 2.030945%, 8.164978%)" offset="0.101562"/>
			<stop stop-opacity="1" stop-color="rgb(2.192688%, 2.108765%, 8.479309%)" offset="0.105469"/>
			<stop stop-opacity="1" stop-color="rgb(2.27356%, 2.186584%, 8.79364%)" offset="0.109375"/>
			<stop stop-opacity="1" stop-color="rgb(2.354431%, 2.264404%, 9.106445%)" offset="0.113281"/>
			<stop stop-opacity="1" stop-color="rgb(2.436829%, 2.342224%, 9.420776%)" offset="0.117188"/>
			<stop stop-opacity="1" stop-color="rgb(2.5177%, 2.420044%, 9.735107%)" offset="0.121094"/>
			<stop stop-opacity="1" stop-color="rgb(2.598572%, 2.49939%, 10.049438%)" offset="0.125"/>
			<stop stop-opacity="1" stop-color="rgb(2.679443%, 2.577209%, 10.36377%)" offset="0.128906"/>
			<stop stop-opacity="1" stop-color="rgb(2.761841%, 2.655029%, 10.678101%)" offset="0.132812"/>
			<stop stop-opacity="1" stop-color="rgb(2.842712%, 2.732849%, 10.990906%)" offset="0.136719"/>
			<stop stop-opacity="1" stop-color="rgb(2.923584%, 2.812195%, 11.305237%)" offset="0.140625"/>
			<stop stop-opacity="1" stop-color="rgb(3.004456%, 2.890015%, 11.619568%)" offset="0.144531"/>
			<stop stop-opacity="1" stop-color="rgb(3.086853%, 2.967834%, 11.933899%)" offset="0.148438"/>
			<stop stop-opacity="1" stop-color="rgb(3.167725%, 3.045654%, 12.246704%)" offset="0.152344"/>
			<stop stop-opacity="1" stop-color="rgb(3.248596%, 3.123474%, 12.561035%)" offset="0.15625"/>
			<stop stop-opacity="1" stop-color="rgb(3.329468%, 3.201294%, 12.875366%)" offset="0.160156"/>
			<stop stop-opacity="1" stop-color="rgb(3.411865%, 3.28064%, 13.189697%)" offset="0.164062"/>
			<stop stop-opacity="1" stop-color="rgb(3.492737%, 3.358459%, 13.504028%)" offset="0.167969"/>
			<stop stop-opacity="1" stop-color="rgb(3.573608%, 3.436279%, 13.818359%)" offset="0.171875"/>
			<stop stop-opacity="1" stop-color="rgb(3.65448%, 3.514099%, 14.131165%)" offset="0.175781"/>
			<stop stop-opacity="1" stop-color="rgb(3.736877%, 3.593445%, 14.445496%)" offset="0.179688"/>
			<stop stop-opacity="1" stop-color="rgb(3.817749%, 3.671265%, 14.759827%)" offset="0.183594"/>
			<stop stop-opacity="1" stop-color="rgb(3.898621%, 3.749084%, 15.074158%)" offset="0.1875"/>
			<stop stop-opacity="1" stop-color="rgb(3.979492%, 3.826904%, 15.388489%)" offset="0.191406"/>
			<stop stop-opacity="1" stop-color="rgb(4.06189%, 3.904724%, 15.70282%)" offset="0.195312"/>
			<stop stop-opacity="1" stop-color="rgb(4.142761%, 3.982544%, 16.015625%)" offset="0.199219"/>
			<stop stop-opacity="1" stop-color="rgb(4.223633%, 4.06189%, 16.329956%)" offset="0.203125"/>
			<stop stop-opacity="1" stop-color="rgb(4.304504%, 4.139709%, 16.644287%)" offset="0.207031"/>
			<stop stop-opacity="1" stop-color="rgb(4.386902%, 4.217529%, 16.958618%)" offset="0.210938"/>
			<stop stop-opacity="1" stop-color="rgb(4.467773%, 4.295349%, 17.272949%)" offset="0.214844"/>
			<stop stop-opacity="1" stop-color="rgb(4.548645%, 4.374695%, 17.58728%)" offset="0.21875"/>
			<stop stop-opacity="1" stop-color="rgb(4.629517%, 4.452515%, 17.900085%)" offset="0.222656"/>
			<stop stop-opacity="1" stop-color="rgb(4.711914%, 4.530334%, 18.214417%)" offset="0.226562"/>
			<stop stop-opacity="1" stop-color="rgb(4.792786%, 4.608154%, 18.528748%)" offset="0.230469"/>
			<stop stop-opacity="1" stop-color="rgb(4.873657%, 4.685974%, 18.843079%)" offset="0.234375"/>
			<stop stop-opacity="1" stop-color="rgb(4.954529%, 4.763794%, 19.15741%)" offset="0.238281"/>
			<stop stop-opacity="1" stop-color="rgb(5.036926%, 4.84314%, 19.471741%)" offset="0.242188"/>
			<stop stop-opacity="1" stop-color="rgb(5.117798%, 4.920959%, 19.784546%)" offset="0.246094"/>
			<stop stop-opacity="1" stop-color="rgb(5.198669%, 4.998779%, 20.098877%)" offset="0.25"/>
			<stop stop-opacity="1" stop-color="rgb(5.279541%, 5.076599%, 20.413208%)" offset="0.253906"/>
			<stop stop-opacity="1" stop-color="rgb(5.361938%, 5.155945%, 20.727539%)" offset="0.257812"/>
			<stop stop-opacity="1" stop-color="rgb(5.44281%, 5.233765%, 21.04187%)" offset="0.261719"/>
			<stop stop-opacity="1" stop-color="rgb(5.523682%, 5.311584%, 21.356201%)" offset="0.265625"/>
			<stop stop-opacity="1" stop-color="rgb(5.604553%, 5.389404%, 21.669006%)" offset="0.269531"/>
			<stop stop-opacity="1" stop-color="rgb(5.686951%, 5.467224%, 21.983337%)" offset="0.273438"/>
			<stop stop-opacity="1" stop-color="rgb(5.767822%, 5.545044%, 22.297668%)" offset="0.277344"/>
			<stop stop-opacity="1" stop-color="rgb(5.848694%, 5.62439%, 22.612%)" offset="0.28125"/>
			<stop stop-opacity="1" stop-color="rgb(5.929565%, 5.702209%, 22.924805%)" offset="0.285156"/>
			<stop stop-opacity="1" stop-color="rgb(6.011963%, 5.780029%, 23.239136%)" offset="0.289062"/>
			<stop stop-opacity="1" stop-color="rgb(6.092834%, 5.857849%, 23.553467%)" offset="0.292969"/>
			<stop stop-opacity="1" stop-color="rgb(6.173706%, 5.937195%, 23.867798%)" offset="0.296875"/>
			<stop stop-opacity="1" stop-color="rgb(6.254578%, 6.015015%, 24.182129%)" offset="0.300781"/>
			<stop stop-opacity="1" stop-color="rgb(6.336975%, 6.092834%, 24.49646%)" offset="0.304688"/>
			<stop stop-opacity="1" stop-color="rgb(6.417847%, 6.170654%, 24.809265%)" offset="0.308594"/>
			<stop stop-opacity="1" stop-color="rgb(6.498718%, 6.248474%, 25.123596%)" offset="0.3125"/>
			<stop stop-opacity="1" stop-color="rgb(6.57959%, 6.326294%, 25.437927%)" offset="0.316406"/>
			<stop stop-opacity="1" stop-color="rgb(6.661987%, 6.40564%, 25.752258%)" offset="0.320312"/>
			<stop stop-opacity="1" stop-color="rgb(6.742859%, 6.483459%, 26.066589%)" offset="0.324219"/>
			<stop stop-opacity="1" stop-color="rgb(6.82373%, 6.561279%, 26.38092%)" offset="0.328125"/>
			<stop stop-opacity="1" stop-color="rgb(6.904602%, 6.639099%, 26.693726%)" offset="0.332031"/>
			<stop stop-opacity="1" stop-color="rgb(6.987%, 6.718445%, 27.008057%)" offset="0.335938"/>
			<stop stop-opacity="1" stop-color="rgb(7.067871%, 6.796265%, 27.322388%)" offset="0.339844"/>
			<stop stop-opacity="1" stop-color="rgb(7.148743%, 6.874084%, 27.636719%)" offset="0.34375"/>
			<stop stop-opacity="1" stop-color="rgb(7.229614%, 6.951904%, 27.95105%)" offset="0.347656"/>
			<stop stop-opacity="1" stop-color="rgb(7.312012%, 7.029724%, 28.265381%)" offset="0.351562"/>
			<stop stop-opacity="1" stop-color="rgb(7.392883%, 7.107544%, 28.578186%)" offset="0.355469"/>
			<stop stop-opacity="1" stop-color="rgb(7.473755%, 7.18689%, 28.892517%)" offset="0.359375"/>
			<stop stop-opacity="1" stop-color="rgb(7.554626%, 7.264709%, 29.206848%)" offset="0.363281"/>
			<stop stop-opacity="1" stop-color="rgb(7.637024%, 7.342529%, 29.521179%)" offset="0.367188"/>
			<stop stop-opacity="1" stop-color="rgb(7.717896%, 7.420349%, 29.83551%)" offset="0.371094"/>
			<stop stop-opacity="1" stop-color="rgb(7.798767%, 7.499695%, 30.149841%)" offset="0.375"/>
			<stop stop-opacity="1" stop-color="rgb(7.879639%, 7.577515%, 30.462646%)" offset="0.378906"/>
			<stop stop-opacity="1" stop-color="rgb(7.962036%, 7.655334%, 30.776978%)" offset="0.382812"/>
			<stop stop-opacity="1" stop-color="rgb(8.042908%, 7.733154%, 31.091309%)" offset="0.386719"/>
			<stop stop-opacity="1" stop-color="rgb(8.123779%, 7.810974%, 31.40564%)" offset="0.390625"/>
			<stop stop-opacity="1" stop-color="rgb(8.204651%, 7.888794%, 31.719971%)" offset="0.394531"/>
			<stop stop-opacity="1" stop-color="rgb(8.287048%, 7.96814%, 32.034302%)" offset="0.398438"/>
			<stop stop-opacity="1" stop-color="rgb(8.36792%, 8.045959%, 32.347107%)" offset="0.402344"/>
			<stop stop-opacity="1" stop-color="rgb(8.448792%, 8.123779%, 32.661438%)" offset="0.40625"/>
			<stop stop-opacity="1" stop-color="rgb(8.529663%, 8.201599%, 32.975769%)" offset="0.410156"/>
			<stop stop-opacity="1" stop-color="rgb(8.612061%, 8.280945%, 33.2901%)" offset="0.414062"/>
			<stop stop-opacity="1" stop-color="rgb(8.692932%, 8.358765%, 33.602905%)" offset="0.417969"/>
			<stop stop-opacity="1" stop-color="rgb(8.773804%, 8.436584%, 33.917236%)" offset="0.421875"/>
			<stop stop-opacity="1" stop-color="rgb(8.854675%, 8.514404%, 34.231567%)" offset="0.425781"/>
			<stop stop-opacity="1" stop-color="rgb(8.937073%, 8.592224%, 34.545898%)" offset="0.429688"/>
			<stop stop-opacity="1" stop-color="rgb(9.017944%, 8.670044%, 34.860229%)" offset="0.433594"/>
			<stop stop-opacity="1" stop-color="rgb(9.098816%, 8.74939%, 35.174561%)" offset="0.4375"/>
			<stop stop-opacity="1" stop-color="rgb(9.179688%, 8.827209%, 35.487366%)" offset="0.441406"/>
			<stop stop-opacity="1" stop-color="rgb(9.262085%, 8.905029%, 35.801697%)" offset="0.445312"/>
			<stop stop-opacity="1" stop-color="rgb(9.342957%, 8.982849%, 36.116028%)" offset="0.449219"/>
			<stop stop-opacity="1" stop-color="rgb(9.423828%, 9.062195%, 36.430359%)" offset="0.453125"/>
			<stop stop-opacity="1" stop-color="rgb(9.5047%, 9.140015%, 36.74469%)" offset="0.457031"/>
			<stop stop-opacity="1" stop-color="rgb(9.587097%, 9.217834%, 37.059021%)" offset="0.460938"/>
			<stop stop-opacity="1" stop-color="rgb(9.667969%, 9.295654%, 37.371826%)" offset="0.464844"/>
			<stop stop-opacity="1" stop-color="rgb(9.74884%, 9.373474%, 37.686157%)" offset="0.46875"/>
			<stop stop-opacity="1" stop-color="rgb(9.829712%, 9.451294%, 38.000488%)" offset="0.472656"/>
			<stop stop-opacity="1" stop-color="rgb(9.912109%, 9.53064%, 38.314819%)" offset="0.476562"/>
			<stop stop-opacity="1" stop-color="rgb(9.992981%, 9.608459%, 38.62915%)" offset="0.480469"/>
			<stop stop-opacity="1" stop-color="rgb(10.073853%, 9.686279%, 38.943481%)" offset="0.484375"/>
			<stop stop-opacity="1" stop-color="rgb(10.154724%, 9.764099%, 39.256287%)" offset="0.488281"/>
			<stop stop-opacity="1" stop-color="rgb(10.237122%, 9.843445%, 39.570618%)" offset="0.492188"/>
			<stop stop-opacity="1" stop-color="rgb(10.317993%, 9.921265%, 39.884949%)" offset="0.496094"/>
			<stop stop-opacity="1" stop-color="rgb(10.398865%, 9.999084%, 40.19928%)" offset="0.5"/>
			<stop stop-opacity="1" stop-color="rgb(10.479736%, 10.076904%, 40.513611%)" offset="0.503906"/>
			<stop stop-opacity="1" stop-color="rgb(10.562134%, 10.154724%, 40.827942%)" offset="0.507812"/>
			<stop stop-opacity="1" stop-color="rgb(10.643005%, 10.232544%, 41.140747%)" offset="0.511719"/>
			<stop stop-opacity="1" stop-color="rgb(10.723877%, 10.31189%, 41.455078%)" offset="0.515625"/>
			<stop stop-opacity="1" stop-color="rgb(10.804749%, 10.389709%, 41.769409%)" offset="0.519531"/>
			<stop stop-opacity="1" stop-color="rgb(10.887146%, 10.467529%, 42.08374%)" offset="0.523438"/>
			<stop stop-opacity="1" stop-color="rgb(10.968018%, 10.545349%, 42.398071%)" offset="0.527344"/>
			<stop stop-opacity="1" stop-color="rgb(11.048889%, 10.624695%, 42.712402%)" offset="0.53125"/>
			<stop stop-opacity="1" stop-color="rgb(11.129761%, 10.702515%, 43.025208%)" offset="0.535156"/>
			<stop stop-opacity="1" stop-color="rgb(11.212158%, 10.780334%, 43.339539%)" offset="0.539062"/>
			<stop stop-opacity="1" stop-color="rgb(11.29303%, 10.858154%, 43.65387%)" offset="0.542969"/>
			<stop stop-opacity="1" stop-color="rgb(11.373901%, 10.935974%, 43.968201%)" offset="0.546875"/>
			<stop stop-opacity="1" stop-color="rgb(11.454773%, 11.013794%, 44.282532%)" offset="0.550781"/>
			<stop stop-opacity="1" stop-color="rgb(11.53717%, 11.09314%, 44.596863%)" offset="0.554688"/>
			<stop stop-opacity="1" stop-color="rgb(11.618042%, 11.170959%, 44.909668%)" offset="0.558594"/>
			<stop stop-opacity="1" stop-color="rgb(11.698914%, 11.248779%, 45.223999%)" offset="0.5625"/>
			<stop stop-opacity="1" stop-color="rgb(11.779785%, 11.326599%, 45.53833%)" offset="0.566406"/>
			<stop stop-opacity="1" stop-color="rgb(11.862183%, 11.405945%, 45.852661%)" offset="0.570312"/>
			<stop stop-opacity="1" stop-color="rgb(11.943054%, 11.483765%, 46.165466%)" offset="0.574219"/>
			<stop stop-opacity="1" stop-color="rgb(12.023926%, 11.561584%, 46.479797%)" offset="0.578125"/>
			<stop stop-opacity="1" stop-color="rgb(12.104797%, 11.639404%, 46.794128%)" offset="0.582031"/>
			<stop stop-opacity="1" stop-color="rgb(12.187195%, 11.717224%, 47.108459%)" offset="0.585938"/>
			<stop stop-opacity="1" stop-color="rgb(12.268066%, 11.795044%, 47.422791%)" offset="0.589844"/>
			<stop stop-opacity="1" stop-color="rgb(12.348938%, 11.87439%, 47.737122%)" offset="0.59375"/>
			<stop stop-opacity="1" stop-color="rgb(12.42981%, 11.952209%, 48.049927%)" offset="0.597656"/>
			<stop stop-opacity="1" stop-color="rgb(12.512207%, 12.030029%, 48.364258%)" offset="0.601562"/>
			<stop stop-opacity="1" stop-color="rgb(12.593079%, 12.107849%, 48.678589%)" offset="0.605469"/>
			<stop stop-opacity="1" stop-color="rgb(12.67395%, 12.187195%, 48.99292%)" offset="0.609375"/>
			<stop stop-opacity="1" stop-color="rgb(12.754822%, 12.265015%, 49.307251%)" offset="0.613281"/>
			<stop stop-opacity="1" stop-color="rgb(12.837219%, 12.342834%, 49.621582%)" offset="0.617188"/>
			<stop stop-opacity="1" stop-color="rgb(12.918091%, 12.420654%, 49.934387%)" offset="0.621094"/>
			<stop stop-opacity="1" stop-color="rgb(12.998962%, 12.498474%, 50.248718%)" offset="0.625"/>
			<stop stop-opacity="1" stop-color="rgb(13.079834%, 12.576294%, 50.563049%)" offset="0.628906"/>
			<stop stop-opacity="1" stop-color="rgb(13.162231%, 12.65564%, 50.87738%)" offset="0.632812"/>
			<stop stop-opacity="1" stop-color="rgb(13.243103%, 12.733459%, 51.191711%)" offset="0.636719"/>
			<stop stop-opacity="1" stop-color="rgb(13.323975%, 12.811279%, 51.506042%)" offset="0.640625"/>
			<stop stop-opacity="1" stop-color="rgb(13.404846%, 12.889099%, 51.818848%)" offset="0.644531"/>
			<stop stop-opacity="1" stop-color="rgb(13.487244%, 12.968445%, 52.133179%)" offset="0.648438"/>
			<stop stop-opacity="1" stop-color="rgb(13.568115%, 13.046265%, 52.44751%)" offset="0.652344"/>
			<stop stop-opacity="1" stop-color="rgb(13.648987%, 13.124084%, 52.761841%)" offset="0.65625"/>
			<stop stop-opacity="1" stop-color="rgb(13.729858%, 13.201904%, 53.076172%)" offset="0.660156"/>
			<stop stop-opacity="1" stop-color="rgb(13.812256%, 13.279724%, 53.390503%)" offset="0.664062"/>
			<stop stop-opacity="1" stop-color="rgb(13.893127%, 13.357544%, 53.703308%)" offset="0.667969"/>
			<stop stop-opacity="1" stop-color="rgb(13.973999%, 13.43689%, 54.017639%)" offset="0.671875"/>
			<stop stop-opacity="1" stop-color="rgb(14.054871%, 13.514709%, 54.33197%)" offset="0.675781"/>
			<stop stop-opacity="1" stop-color="rgb(14.137268%, 13.592529%, 54.646301%)" offset="0.679688"/>
			<stop stop-opacity="1" stop-color="rgb(14.21814%, 13.670349%, 54.960632%)" offset="0.683594"/>
			<stop stop-opacity="1" stop-color="rgb(14.299011%, 13.749695%, 55.274963%)" offset="0.6875"/>
			<stop stop-opacity="1" stop-color="rgb(14.379883%, 13.827515%, 55.587769%)" offset="0.691406"/>
			<stop stop-opacity="1" stop-color="rgb(14.46228%, 13.905334%, 55.9021%)" offset="0.695312"/>
			<stop stop-opacity="1" stop-color="rgb(14.543152%, 13.983154%, 56.216431%)" offset="0.699219"/>
			<stop stop-opacity="1" stop-color="rgb(14.624023%, 14.060974%, 56.530762%)" offset="0.703125"/>
			<stop stop-opacity="1" stop-color="rgb(14.704895%, 14.138794%, 56.843567%)" offset="0.707031"/>
			<stop stop-opacity="1" stop-color="rgb(14.787292%, 14.21814%, 57.157898%)" offset="0.710938"/>
			<stop stop-opacity="1" stop-color="rgb(14.868164%, 14.295959%, 57.472229%)" offset="0.714844"/>
			<stop stop-opacity="1" stop-color="rgb(14.949036%, 14.373779%, 57.78656%)" offset="0.71875"/>
			<stop stop-opacity="1" stop-color="rgb(15.029907%, 14.451599%, 58.100891%)" offset="0.722656"/>
			<stop stop-opacity="1" stop-color="rgb(15.112305%, 14.530945%, 58.415222%)" offset="0.726562"/>
			<stop stop-opacity="1" stop-color="rgb(15.193176%, 14.608765%, 58.728027%)" offset="0.730469"/>
			<stop stop-opacity="1" stop-color="rgb(15.274048%, 14.686584%, 59.042358%)" offset="0.734375"/>
			<stop stop-opacity="1" stop-color="rgb(15.354919%, 14.764404%, 59.356689%)" offset="0.738281"/>
			<stop stop-opacity="1" stop-color="rgb(15.437317%, 14.842224%, 59.671021%)" offset="0.742188"/>
			<stop stop-opacity="1" stop-color="rgb(15.518188%, 14.920044%, 59.985352%)" offset="0.746094"/>
			<stop stop-opacity="1" stop-color="rgb(15.59906%, 14.99939%, 60.299683%)" offset="0.75"/>
			<stop stop-opacity="1" stop-color="rgb(15.679932%, 15.077209%, 60.612488%)" offset="0.753906"/>
			<stop stop-opacity="1" stop-color="rgb(15.762329%, 15.155029%, 60.926819%)" offset="0.757812"/>
			<stop stop-opacity="1" stop-color="rgb(15.843201%, 15.232849%, 61.24115%)" offset="0.761719"/>
			<stop stop-opacity="1" stop-color="rgb(15.924072%, 15.312195%, 61.555481%)" offset="0.765625"/>
			<stop stop-opacity="1" stop-color="rgb(16.004944%, 15.390015%, 61.869812%)" offset="0.769531"/>
			<stop stop-opacity="1" stop-color="rgb(16.087341%, 15.467834%, 62.184143%)" offset="0.773438"/>
			<stop stop-opacity="1" stop-color="rgb(16.168213%, 15.545654%, 62.496948%)" offset="0.777344"/>
			<stop stop-opacity="1" stop-color="rgb(16.249084%, 15.623474%, 62.811279%)" offset="0.78125"/>
			<stop stop-opacity="1" stop-color="rgb(16.329956%, 15.701294%, 63.12561%)" offset="0.785156"/>
			<stop stop-opacity="1" stop-color="rgb(16.412354%, 15.78064%, 63.439941%)" offset="0.789062"/>
			<stop stop-opacity="1" stop-color="rgb(16.493225%, 15.858459%, 63.754272%)" offset="0.792969"/>
			<stop stop-opacity="1" stop-color="rgb(16.574097%, 15.936279%, 64.068604%)" offset="0.796875"/>
			<stop stop-opacity="1" stop-color="rgb(16.654968%, 16.014099%, 64.381409%)" offset="0.800781"/>
			<stop stop-opacity="1" stop-color="rgb(16.737366%, 16.093445%, 64.69574%)" offset="0.804688"/>
			<stop stop-opacity="1" stop-color="rgb(16.818237%, 16.171265%, 65.010071%)" offset="0.808594"/>
			<stop stop-opacity="1" stop-color="rgb(16.899109%, 16.249084%, 65.324402%)" offset="0.8125"/>
			<stop stop-opacity="1" stop-color="rgb(16.97998%, 16.326904%, 65.638733%)" offset="0.816406"/>
			<stop stop-opacity="1" stop-color="rgb(17.062378%, 16.404724%, 65.953064%)" offset="0.820312"/>
			<stop stop-opacity="1" stop-color="rgb(17.14325%, 16.482544%, 66.265869%)" offset="0.824219"/>
			<stop stop-opacity="1" stop-color="rgb(17.224121%, 16.56189%, 66.5802%)" offset="0.828125"/>
			<stop stop-opacity="1" stop-color="rgb(17.304993%, 16.639709%, 66.894531%)" offset="0.832031"/>
			<stop stop-opacity="1" stop-color="rgb(17.38739%, 16.717529%, 67.208862%)" offset="0.835938"/>
			<stop stop-opacity="1" stop-color="rgb(17.468262%, 16.795349%, 67.521667%)" offset="0.839844"/>
			<stop stop-opacity="1" stop-color="rgb(17.549133%, 16.874695%, 67.835999%)" offset="0.84375"/>
			<stop stop-opacity="1" stop-color="rgb(17.630005%, 16.952515%, 68.15033%)" offset="0.847656"/>
			<stop stop-opacity="1" stop-color="rgb(17.712402%, 17.030334%, 68.464661%)" offset="0.851562"/>
			<stop stop-opacity="1" stop-color="rgb(17.793274%, 17.108154%, 68.778992%)" offset="0.855469"/>
			<stop stop-opacity="1" stop-color="rgb(17.874146%, 17.185974%, 69.093323%)" offset="0.859375"/>
			<stop stop-opacity="1" stop-color="rgb(17.955017%, 17.263794%, 69.406128%)" offset="0.863281"/>
			<stop stop-opacity="1" stop-color="rgb(18.037415%, 17.34314%, 69.720459%)" offset="0.867188"/>
			<stop stop-opacity="1" stop-color="rgb(18.118286%, 17.420959%, 70.03479%)" offset="0.871094"/>
			<stop stop-opacity="1" stop-color="rgb(18.199158%, 17.498779%, 70.349121%)" offset="0.875"/>
			<stop stop-opacity="1" stop-color="rgb(18.280029%, 17.576599%, 70.663452%)" offset="0.878906"/>
			<stop stop-opacity="1" stop-color="rgb(18.362427%, 17.655945%, 70.977783%)" offset="0.882812"/>
			<stop stop-opacity="1" stop-color="rgb(18.443298%, 17.733765%, 71.290588%)" offset="0.886719"/>
			<stop stop-opacity="1" stop-color="rgb(18.52417%, 17.811584%, 71.604919%)" offset="0.890625"/>
			<stop stop-opacity="1" stop-color="rgb(18.605042%, 17.889404%, 71.91925%)" offset="0.894531"/>
			<stop stop-opacity="1" stop-color="rgb(18.687439%, 17.967224%, 72.233582%)" offset="0.898438"/>
			<stop stop-opacity="1" stop-color="rgb(18.768311%, 18.045044%, 72.547913%)" offset="0.902344"/>
			<stop stop-opacity="1" stop-color="rgb(18.849182%, 18.12439%, 72.862244%)" offset="0.90625"/>
			<stop stop-opacity="1" stop-color="rgb(18.930054%, 18.202209%, 73.175049%)" offset="0.910156"/>
			<stop stop-opacity="1" stop-color="rgb(19.012451%, 18.280029%, 73.48938%)" offset="0.914062"/>
			<stop stop-opacity="1" stop-color="rgb(19.093323%, 18.357849%, 73.803711%)" offset="0.917969"/>
			<stop stop-opacity="1" stop-color="rgb(19.174194%, 18.437195%, 74.118042%)" offset="0.921875"/>
			<stop stop-opacity="1" stop-color="rgb(19.255066%, 18.515015%, 74.432373%)" offset="0.925781"/>
			<stop stop-opacity="1" stop-color="rgb(19.337463%, 18.592834%, 74.746704%)" offset="0.929688"/>
			<stop stop-opacity="1" stop-color="rgb(19.418335%, 18.670654%, 75.059509%)" offset="0.933594"/>
			<stop stop-opacity="1" stop-color="rgb(19.499207%, 18.748474%, 75.37384%)" offset="0.9375"/>
			<stop stop-opacity="1" stop-color="rgb(19.580078%, 18.826294%, 75.688171%)" offset="0.941406"/>
			<stop stop-opacity="1" stop-color="rgb(19.662476%, 18.90564%, 76.002502%)" offset="0.945312"/>
			<stop stop-opacity="1" stop-color="rgb(19.743347%, 18.983459%, 76.316833%)" offset="0.949219"/>
			<stop stop-opacity="1" stop-color="rgb(19.824219%, 19.061279%, 76.631165%)" offset="0.953125"/>
			<stop stop-opacity="1" stop-color="rgb(19.90509%, 19.139099%, 76.94397%)" offset="0.957031"/>
			<stop stop-opacity="1" stop-color="rgb(19.987488%, 19.218445%, 77.258301%)" offset="0.960938"/>
			<stop stop-opacity="1" stop-color="rgb(20.068359%, 19.296265%, 77.572632%)" offset="0.964844"/>
			<stop stop-opacity="1" stop-color="rgb(20.149231%, 19.374084%, 77.886963%)" offset="0.96875"/>
			<stop stop-opacity="1" stop-color="rgb(20.230103%, 19.451904%, 78.199768%)" offset="0.972656"/>
			<stop stop-opacity="1" stop-color="rgb(20.310974%, 19.529724%, 78.514099%)" offset="0.976562"/>
			<stop stop-opacity="1" stop-color="rgb(20.391846%, 19.607544%, 78.82843%)" offset="0.980469"/>
			<stop stop-opacity="1" stop-color="rgb(20.474243%, 19.68689%, 79.142761%)" offset="0.984375"/>
			<stop stop-opacity="1" stop-color="rgb(20.555115%, 19.764709%, 79.457092%)" offset="0.988281"/>
			<stop stop-opacity="1" stop-color="rgb(20.635986%, 19.842529%, 79.771423%)" offset="0.992188"/>
			<stop stop-opacity="1" stop-color="rgb(20.716858%, 19.920349%, 80.084229%)" offset="0.996094"/>
			<stop stop-opacity="1" stop-color="rgb(20.799255%, 19.999695%, 80.39856%)" offset="1"/>
		</linearGradient>
		<clipPath id="b52e72c998">
			<path d="M 5 42 L 70 42 L 70 67.425781 L 5 67.425781 Z M 5 42 " clip-rule="nonzero"/>
		</clipPath>
		<clipPath id="7eb3c1a1a8">
			<path d="M 16.234375 6.148438 L 58.984375 6.148438 L 58.984375 36.898438 L 16.234375 36.898438 Z M 16.234375 6.148438 " clip-rule="nonzero"/>
		</clipPath>
	</defs>
	<rect x="-7.5" width="90" fill="#ffffff" y="-7.5" height="89.999996" fill-opacity="1"/>
	<rect x="-7.5" fill="url(#d5b30160b1)" width="90" y="-7.5" height="89.999996"/>
	<g clip-path="url(#b52e72c998)">
		<path fill="#ffffff" d="M 55.433594 44.996094 C 58.171875 42.492188 60.023438 42.160156 62.328125 43.304688 C 62.714844 43.066406 63.117188 42.859375 63.539062 42.6875 C 64.125 42.445312 64.734375 42.316406 65.367188 42.304688 C 67.445312 42.425781 68.265625 43.988281 67.203125 45.765625 C 66.695312 46.601562 66.085938 47.359375 65.375 48.03125 C 63.441406 49.859375 61.445312 51.613281 59.46875 53.394531 C 59.238281 53.570312 59.070312 53.792969 58.957031 54.058594 C 59.316406 53.953125 59.664062 53.847656 60.015625 53.726562 C 60.363281 53.605469 60.828125 53.425781 61.207031 53.304688 C 62.652344 52.839844 64.082031 52.296875 65.554688 51.972656 C 65.960938 51.878906 66.371094 51.863281 66.785156 51.917969 C 67.199219 51.972656 67.589844 52.097656 67.957031 52.292969 C 68.328125 52.488281 68.652344 52.742188 68.929688 53.050781 C 69.207031 53.363281 69.421875 53.710938 69.574219 54.101562 C 69.671875 54.265625 69.738281 54.445312 69.769531 54.636719 C 69.804688 54.824219 69.804688 55.015625 69.769531 55.207031 C 69.734375 55.394531 69.667969 55.574219 69.570312 55.738281 C 69.472656 55.90625 69.351562 56.050781 69.203125 56.171875 C 68.550781 56.777344 67.832031 57.285156 67.039062 57.691406 C 64.605469 58.828125 62.109375 59.894531 59.617188 60.941406 C 57.542969 61.753906 55.472656 62.65625 53.34375 63.328125 C 49.210938 64.660156 45.050781 65.929688 40.859375 67.066406 C 39.359375 67.453125 37.902344 67.339844 36.480469 66.726562 C 34.335938 65.832031 32.222656 64.863281 30.078125 63.980469 C 28.453125 63.320312 26.828125 62.664062 25.203125 62.136719 C 22.816406 61.324219 20.386719 61.144531 18.03125 62.265625 C 16.253906 63.117188 14.71875 64.285156 13.417969 65.765625 C 12.492188 66.804688 12.359375 66.820312 11.320312 65.855469 C 10.460938 65.121094 9.640625 64.34375 8.859375 63.523438 C 6.890625 61.273438 5.660156 58.675781 5.171875 55.726562 C 5.082031 55.128906 5.0625 54.53125 5.113281 53.929688 C 5.171875 52.914062 5.414062 52.742188 6.414062 52.304688 C 8.035156 51.632812 9.449219 50.65625 10.648438 49.371094 C 11.175781 48.855469 11.664062 48.296875 12.109375 47.707031 C 15.359375 43.050781 22.273438 41.152344 28.1875 43.589844 C 30.90625 44.746094 33.402344 46.273438 35.667969 48.171875 C 37.421875 49.660156 39.382812 50.796875 41.550781 51.582031 C 42.019531 51.792969 42.503906 51.859375 43.011719 51.773438 C 43.519531 51.6875 43.960938 51.472656 44.335938 51.121094 L 49.625 46.382812 C 49.714844 46.292969 49.8125 46.210938 49.890625 46.113281 C 51.417969 44.246094 53.28125 43.777344 55.433594 44.996094 Z M 67.789062 55.066406 C 67.75 54.859375 67.667969 54.664062 67.546875 54.488281 C 67.425781 54.3125 67.273438 54.167969 67.09375 54.054688 C 66.914062 53.941406 66.714844 53.871094 66.503906 53.839844 C 66.292969 53.8125 66.085938 53.824219 65.878906 53.882812 C 64.804688 54.105469 63.75 54.390625 62.710938 54.742188 C 60.273438 55.554688 57.976562 56.539062 55.398438 56.796875 C 54.976562 56.894531 54.652344 57.128906 54.433594 57.503906 C 54.164062 58.023438 53.785156 58.445312 53.296875 58.761719 C 52.808594 59.082031 52.269531 59.261719 51.6875 59.300781 C 50.261719 59.457031 48.832031 59.515625 47.398438 59.476562 C 44.054688 59.292969 40.734375 59.523438 37.445312 60.160156 C 36.074219 60.433594 34.691406 60.546875 33.296875 60.503906 C 32.070312 60.449219 30.863281 60.277344 29.671875 59.988281 C 29.511719 59.960938 29.367188 59.898438 29.234375 59.808594 C 29.097656 59.714844 28.988281 59.597656 28.902344 59.460938 C 28.820312 59.324219 28.765625 59.171875 28.742188 59.011719 C 28.722656 58.851562 28.734375 58.691406 28.777344 58.535156 C 28.972656 57.984375 29.421875 57.835938 30.265625 58.066406 C 32.417969 58.65625 34.582031 58.71875 36.765625 58.25 C 40.59375 57.476562 44.457031 57.226562 48.355469 57.503906 C 49.246094 57.539062 50.128906 57.511719 51.011719 57.414062 C 51.3125 57.433594 51.59375 57.375 51.859375 57.238281 C 52.121094 57.101562 52.335938 56.90625 52.492188 56.652344 C 52.191406 55.96875 51.574219 55.839844 51.011719 55.734375 C 50.023438 55.515625 49.023438 55.351562 48.023438 55.199219 C 42.597656 54.386719 37.519531 52.761719 33.304688 48.992188 C 31.957031 47.890625 30.511719 46.953125 28.957031 46.171875 C 27.796875 45.488281 26.558594 45.011719 25.242188 44.730469 C 23.925781 44.453125 22.601562 44.394531 21.265625 44.546875 C 19.792969 44.679688 18.40625 45.101562 17.105469 45.804688 C 15.804688 46.511719 14.695312 47.445312 13.78125 48.609375 C 12.195312 50.746094 10.226562 52.445312 7.878906 53.703125 C 7.550781 53.875 7.226562 54.066406 6.796875 54.304688 C 6.992188 56.242188 7.570312 58.058594 8.53125 59.753906 C 9.488281 61.449219 10.746094 62.882812 12.304688 64.050781 C 13.164062 63.335938 13.929688 62.65625 14.78125 61.996094 C 15.449219 61.4375 16.171875 60.96875 16.953125 60.589844 C 17.734375 60.207031 18.546875 59.925781 19.398438 59.746094 C 20.246094 59.566406 21.105469 59.488281 21.972656 59.519531 C 22.84375 59.546875 23.695312 59.679688 24.53125 59.917969 C 26.679688 60.519531 28.789062 61.242188 30.859375 62.085938 C 32.824219 62.898438 34.710938 63.824219 36.675781 64.597656 C 37.535156 64.960938 38.429688 65.132812 39.363281 65.109375 C 40.582031 64.976562 41.773438 64.730469 42.9375 64.359375 C 45.058594 63.792969 47.195312 63.246094 49.257812 62.515625 C 53.636719 60.980469 57.984375 59.347656 62.328125 57.714844 C 63.546875 57.261719 64.765625 56.675781 65.902344 56.089844 C 66.550781 55.78125 67.179688 55.441406 67.789062 55.066406 Z M 65.726562 44.238281 C 65.207031 44.300781 64.699219 44.414062 64.207031 44.578125 C 63.683594 44.855469 63.195312 45.1875 62.742188 45.570312 C 59.585938 48.152344 56.429688 50.75 53.28125 53.351562 C 53.042969 53.570312 52.820312 53.800781 52.613281 54.042969 L 54.1875 55.027344 C 57.410156 52.609375 60.472656 50.007812 63.378906 47.21875 C 63.976562 46.628906 64.546875 46.007812 65.082031 45.359375 C 65.324219 45.003906 65.539062 44.628906 65.726562 44.238281 Z M 60.574219 44.863281 C 60.234375 44.714844 59.878906 44.664062 59.507812 44.707031 C 59.140625 44.75 58.808594 44.882812 58.511719 45.109375 C 57.699219 45.765625 56.886719 46.457031 56.074219 47.15625 C 54.042969 48.992188 52.011719 50.84375 49.988281 52.679688 C 49.730469 52.871094 49.460938 53.042969 49.175781 53.191406 C 49.4375 53.363281 49.71875 53.429688 50.027344 53.390625 C 50.335938 53.351562 50.59375 53.21875 50.800781 52.988281 C 53.238281 50.957031 55.773438 48.925781 58.242188 46.910156 C 59.007812 46.300781 59.695312 45.636719 60.550781 44.863281 Z M 45.570312 52.550781 C 46.277344 53.132812 46.878906 52.769531 47.398438 52.328125 C 49.386719 50.648438 51.347656 48.933594 53.3125 47.210938 C 53.523438 46.992188 53.710938 46.757812 53.878906 46.503906 C 53.585938 46.332031 53.269531 46.265625 52.929688 46.300781 C 52.589844 46.335938 52.296875 46.46875 52.042969 46.699219 C 49.898438 48.648438 47.738281 50.589844 45.570312 52.550781 Z M 45.570312 52.550781 " fill-opacity="1" fill-rule="nonzero"/>
	</g>
	<g clip-path="url(#7eb3c1a1a8)">
		<path fill="#ffffff" d="M 57.386719 33.847656 C 57.386719 34.453125 56.882812 34.949219 56.242188 34.949219 L 37.496094 35.722656 L 18.71875 34.949219 C 18.105469 34.949219 17.605469 34.453125 17.605469 33.847656 L 17.605469 10.804688 C 17.605469 10.195312 18.105469 9.699219 18.71875 9.699219 L 19.539062 9.699219 L 19.539062 33.042969 C 19.585938 33.527344 19.96875 33.699219 20.261719 33.730469 C 20.320312 33.734375 26.535156 33.414062 31.359375 33.394531 C 35.296875 33.394531 37.40625 34.21875 37.492188 34.21875 C 37.585938 34.21875 39.691406 33.394531 43.753906 33.394531 C 48.453125 33.414062 54.664062 33.730469 54.726562 33.730469 C 55.183594 33.722656 55.433594 33.386719 55.449219 33.042969 L 55.449219 9.699219 L 56.269531 9.699219 C 56.882812 9.699219 57.386719 10.195312 57.386719 10.804688 Z M 35.671875 32.371094 C 34.613281 32.183594 33.148438 32.023438 31.226562 32.023438 C 28.601562 32.03125 25.53125 32.132812 23.289062 32.222656 C 25.496094 31.550781 28.621094 30.769531 31.261719 30.757812 C 33.300781 30.757812 34.746094 31.585938 35.671875 32.371094 Z M 20.910156 10.128906 C 22.417969 9.523438 27.660156 7.523438 31.21875 7.523438 C 34.6875 7.558594 36.355469 9.078125 36.808594 9.578125 L 36.808594 31.535156 C 35.703125 30.53125 33.867188 29.382812 31.226562 29.382812 C 27.441406 29.402344 22.855469 30.867188 20.910156 31.554688 Z M 51.703125 32.222656 C 49.445312 32.132812 46.335938 32.03125 43.632812 32.023438 C 41.785156 32.023438 40.363281 32.179688 39.328125 32.363281 C 40.253906 31.582031 41.707031 30.757812 43.757812 30.757812 C 46.382812 30.769531 49.5 31.550781 51.703125 32.222656 Z M 38.179688 9.578125 C 38.640625 9.078125 40.320312 7.558594 43.863281 7.519531 C 47.339844 7.519531 52.574219 9.523438 54.078125 10.128906 L 54.078125 31.554688 C 52.128906 30.867188 47.539062 29.402344 43.726562 29.382812 C 41.109375 29.382812 39.28125 30.527344 38.179688 31.53125 Z M 56.269531 8.328125 L 53.226562 8.328125 C 50.910156 7.472656 46.839844 6.152344 43.753906 6.152344 C 40.328125 6.1875 38.382812 7.523438 37.507812 8.328125 L 37.480469 8.328125 C 36.597656 7.523438 34.628906 6.1875 31.128906 6.148438 C 28.117188 6.148438 24.066406 7.472656 21.761719 8.328125 L 18.71875 8.328125 C 17.347656 8.328125 16.234375 9.4375 16.234375 10.804688 L 16.234375 33.847656 C 16.234375 35.210938 17.347656 36.320312 18.691406 36.320312 C 18.691406 36.320312 37.464844 37.097656 37.464844 37.097656 C 37.476562 37.097656 37.484375 37.097656 37.496094 37.097656 C 37.503906 37.097656 37.511719 37.097656 37.523438 37.097656 L 56.269531 36.320312 C 57.640625 36.320312 58.757812 35.210938 58.757812 33.847656 L 58.757812 10.804688 C 58.757812 9.4375 57.640625 8.328125 56.269531 8.328125 " fill-opacity="1" fill-rule="nonzero"/>
	</g>
</svg>